<svg xmlns="http://www.w3.org/2000/svg" xmlns:xlink="http://www.w3.org/1999/xlink" width="1060" zoomAndPan="magnify" viewBox="0 0 794.88 723.75" height="965" preserveAspectRatio="xMidYMid meet" version="1.2"><defs><clipPath id="df33579431"><path d="M 46.371094 120 L 639 120 L 639 713 L 46.371094 713 Z M 46.371094 120 "/></clipPath><clipPath id="b94b564134"><path d="M 529 10.679688 L 748.875 10.679688 L 748.875 231 L 529 231 Z M 529 10.679688 "/></clipPath><clipPath id="cb7e1de196"><path d="M 623 104 L 748.875 104 L 748.875 231 L 623 231 Z M 623 104 "/></clipPath></defs><g id="58c90e7684"><g clip-rule="nonzero" clip-path="url(#df33579431)"><path style=" stroke:none;fill-rule:nonzero;fill:#0ba87d;fill-opacity:1;" d="M 575.21875 712.8125 L 109.941406 712.8125 C 74.832031 712.8125 46.371094 684.347656 46.371094 649.238281 L 46.371094 183.960938 C 46.371094 148.851562 74.832031 120.386719 109.941406 120.386719 L 575.21875 120.386719 C 610.332031 120.386719 638.792969 148.851562 638.792969 183.960938 L 638.792969 649.238281 C 638.792969 684.347656 610.332031 712.8125 575.21875 712.8125 Z M 575.21875 712.8125 "/></g><path style=" stroke:none;fill-rule:nonzero;fill:#047455;fill-opacity:1;" d="M 603.777344 127.148438 C 608.101562 135.734375 610.539062 145.4375 610.539062 155.707031 L 610.539062 614.320312 C 610.539062 653.109375 579.09375 684.554688 540.304688 684.554688 L 81.6875 684.554688 C 71.417969 684.554688 61.71875 682.121094 53.132812 677.796875 C 63.589844 698.566406 85.101562 712.8125 109.941406 712.8125 L 575.21875 712.8125 C 610.332031 712.8125 638.792969 684.347656 638.792969 649.238281 L 638.792969 183.960938 C 638.792969 159.121094 624.546875 137.609375 603.777344 127.148438 Z M 603.777344 127.148438 "/><g clip-rule="nonzero" clip-path="url(#b94b564134)"><path style=" stroke:none;fill-rule:nonzero;fill:#ffd15b;fill-opacity:1;" d="M 742.609375 112.117188 C 697.863281 96.765625 662.449219 61.332031 647.125 16.578125 C 645.921875 13.058594 642.632812 10.679688 638.910156 10.679688 L 638.847656 10.679688 C 635.128906 10.679688 631.839844 13.058594 630.632812 16.578125 C 615.292969 61.390625 579.8125 96.859375 534.988281 112.179688 C 531.464844 113.382812 529.085938 116.671875 529.085938 120.394531 C 529.085938 124.117188 531.464844 127.40625 534.988281 128.613281 C 579.8125 143.925781 615.292969 179.386719 630.632812 224.195312 C 631.839844 227.714844 635.125 230.09375 638.847656 230.09375 L 638.910156 230.09375 C 642.632812 230.09375 645.921875 227.714844 647.125 224.195312 C 662.449219 179.441406 697.863281 144.011719 742.609375 128.664062 C 746.125 127.457031 748.5 124.171875 748.5 120.453125 L 748.5 120.328125 C 748.5 116.613281 746.125 113.328125 742.609375 112.117188 Z M 742.609375 112.117188 "/></g><g clip-rule="nonzero" clip-path="url(#cb7e1de196)"><path style=" stroke:none;fill-rule:nonzero;fill:#ffc344;fill-opacity:1;" d="M 742.609375 112.117188 C 736.632812 110.066406 730.820312 107.660156 725.203125 104.917969 C 724.214844 106.0625 722.917969 106.960938 721.417969 107.476562 C 676.671875 122.820312 641.257812 158.25 625.933594 203.007812 C 625.425781 204.488281 624.550781 205.769531 623.425781 206.753906 C 626.171875 212.382812 628.582031 218.207031 630.632812 224.199219 C 631.839844 227.71875 635.125 230.09375 638.847656 230.09375 L 638.910156 230.09375 C 642.632812 230.09375 645.921875 227.71875 647.125 224.199219 C 662.449219 179.441406 697.863281 144.011719 742.609375 128.667969 C 746.125 127.460938 748.5 124.171875 748.5 120.453125 L 748.5 120.332031 C 748.5 116.613281 746.125 113.328125 742.609375 112.117188 Z M 742.609375 112.117188 "/></g><path style=" stroke:none;fill-rule:nonzero;fill:#ffffff;fill-opacity:1;" d="M 305.589844 245.789062 C 299.851562 230.550781 284.949219 219.898438 267.933594 219.898438 L 267.890625 219.898438 C 250.738281 219.914062 236.066406 230.582031 230.300781 245.707031 L 107.292969 568.675781 C 100.824219 585.664062 109.351562 604.679688 126.335938 611.148438 C 143.324219 617.609375 162.339844 609.089844 168.808594 592.105469 L 189.636719 537.414062 C 190.683594 534.675781 193.308594 532.867188 196.238281 532.867188 L 338.6875 532.867188 C 341.628906 532.867188 344.261719 534.683594 345.296875 537.433594 L 365.894531 592.011719 C 372.382812 609.203125 391.613281 617.6875 408.644531 611.054688 C 425.5625 604.464844 433.636719 585.082031 427.226562 568.09375 Z M 220.089844 457.464844 L 261.191406 349.546875 C 263.503906 343.472656 272.105469 343.484375 274.398438 349.570312 L 315.125 457.484375 C 316.867188 462.105469 313.457031 467.042969 308.515625 467.042969 L 226.691406 467.042969 C 221.742188 467.042969 218.328125 462.085938 220.089844 457.464844 Z M 220.089844 457.464844 "/><path style=" stroke:none;fill-rule:nonzero;fill:#ffffff;fill-opacity:1;" d="M 511.050781 226.871094 C 492.875 226.871094 478.136719 241.609375 478.136719 259.785156 L 478.136719 580.390625 C 478.136719 598.570312 492.875 613.304688 511.050781 613.304688 C 529.226562 613.304688 543.964844 598.570312 543.964844 580.390625 L 543.964844 259.785156 C 543.964844 241.609375 529.226562 226.871094 511.050781 226.871094 Z M 511.050781 226.871094 "/></g></svg>