<svg xmlns="http://www.w3.org/2000/svg" xmlns:xlink="http://www.w3.org/1999/xlink" width="1060" zoomAndPan="magnify" viewBox="0 0 794.88 723.75" height="965" preserveAspectRatio="xMidYMid meet" version="1.2"><defs><clipPath id="9b6197e570"><path d="M 232 31.691406 L 563 31.691406 L 563 691.464844 L 232 691.464844 Z M 232 31.691406 "/></clipPath></defs><g id="2a518b089f"><g clip-rule="nonzero" clip-path="url(#9b6197e570)"><path style=" stroke:none;fill-rule:nonzero;fill:#0ba87d;fill-opacity:1;" d="M 397.269531 691.464844 C 306.335938 691.464844 232.324219 617.476562 232.324219 526.519531 L 232.324219 149.507812 C 232.324219 84.542969 285.175781 31.691406 350.140625 31.691406 C 415.105469 31.691406 467.957031 84.542969 467.957031 149.507812 L 467.957031 526.519531 C 467.957031 565.496094 436.242188 597.210938 397.269531 597.210938 C 358.292969 597.210938 326.578125 565.496094 326.578125 526.519531 L 326.578125 196.636719 C 326.578125 183.628906 337.109375 173.070312 350.140625 173.070312 C 363.171875 173.070312 373.703125 183.628906 373.703125 196.636719 L 373.703125 526.519531 C 373.703125 539.503906 384.261719 550.085938 397.269531 550.085938 C 410.273438 550.085938 420.832031 539.503906 420.832031 526.519531 L 420.832031 149.507812 C 420.832031 110.535156 389.117188 78.820312 350.140625 78.820312 C 311.167969 78.820312 279.453125 110.535156 279.453125 149.507812 L 279.453125 526.519531 C 279.453125 591.484375 332.304688 644.335938 397.269531 644.335938 C 462.230469 644.335938 515.085938 591.484375 515.085938 526.519531 L 515.085938 196.636719 C 515.085938 183.628906 525.617188 173.070312 538.648438 173.070312 C 551.679688 173.070312 562.210938 183.628906 562.210938 196.636719 L 562.210938 526.519531 C 562.210938 617.476562 488.199219 691.464844 397.269531 691.464844 Z M 397.269531 691.464844 "/></g></g></svg>