<svg xmlns="http://www.w3.org/2000/svg" xmlns:xlink="http://www.w3.org/1999/xlink" width="1060" zoomAndPan="magnify" viewBox="0 0 794.88 723.75" height="965" preserveAspectRatio="xMidYMid meet" version="1.2"><defs><clipPath id="0b09ff610a"><path d="M 47 335 L 748 335 L 748 662.773438 L 47 662.773438 Z M 47 335 "/></clipPath><filter x="0%" y="0%" width="100%" filterUnits="objectBoundingBox" id="155ad31b3a" height="100%"><feColorMatrix values="0 0 0 0 1 0 0 0 0 1 0 0 0 0 1 0 0 0 1 0" type="matrix" in="SourceGraphic"/></filter><clipPath id="fa99eeda81"><path d="M 1 1 L 701.660156 1 L 701.660156 114 L 1 114 Z M 1 1 "/></clipPath><clipPath id="de7249b5e7"><rect x="0" width="702" y="0" height="116"/></clipPath><clipPath id="e5eb326c9e"><path d="M 234 60.730469 L 561 60.730469 L 561 242 L 234 242 Z M 234 60.730469 "/></clipPath><clipPath id="4208878332"><path d="M 22.921875 144 L 771.914062 144 L 771.914062 437 L 22.921875 437 Z M 22.921875 144 "/></clipPath></defs><g id="3db6e1d092"><g clip-rule="nonzero" clip-path="url(#0b09ff610a)"><path style=" stroke:none;fill-rule:nonzero;fill:#0ba87d;fill-opacity:1;" d="M 670.371094 662.644531 L 124.609375 662.644531 C 82.175781 662.644531 47.777344 628.246094 47.777344 585.8125 L 47.777344 335.339844 L 747.199219 335.339844 L 747.199219 585.8125 C 747.199219 628.246094 712.804688 662.644531 670.371094 662.644531 Z M 670.371094 662.644531 "/></g><g mask="url(#b1db81ec6d)" transform="matrix(1,0,0,1,46,334)"><g clip-path="url(#de7249b5e7)"><g clip-rule="nonzero" clip-path="url(#fa99eeda81)"><path style=" stroke:none;fill-rule:nonzero;fill:#000000;fill-opacity:1;" d="M 1.777344 51.9375 C 115.675781 134.554688 587.304688 134.554688 701.199219 51.9375 L 701.199219 1.339844 L 1.777344 1.339844 Z M 1.777344 51.9375 "/></g></g><mask id="b1db81ec6d"><g filter="url(#155ad31b3a)"><rect x="0" width="794.88" y="0" height="723.75" style="fill:#000000;fill-opacity:0.2;stroke:none;"/></g></mask></g><g clip-rule="nonzero" clip-path="url(#e5eb326c9e)"><path style=" stroke:none;fill-rule:nonzero;fill:#035740;fill-opacity:1;" d="M 421.308594 101.964844 C 475.621094 101.964844 519.652344 145.996094 519.652344 200.308594 L 275.328125 200.308594 C 275.328125 145.996094 319.355469 101.964844 373.671875 101.964844 L 421.308594 101.964844 M 421.308594 60.730469 L 373.671875 60.730469 C 296.707031 60.730469 234.09375 123.347656 234.09375 200.308594 L 234.09375 241.542969 L 560.886719 241.542969 L 560.886719 200.308594 C 560.882812 123.347656 498.273438 60.730469 421.308594 60.730469 Z M 421.308594 60.730469 "/></g><g clip-rule="nonzero" clip-path="url(#4208878332)"><path style=" stroke:none;fill-rule:nonzero;fill:#029b71;fill-opacity:1;" d="M 772.042969 334.957031 C 772.042969 470.179688 22.933594 470.179688 22.933594 334.957031 L 22.933594 179.054688 C 22.933594 160.136719 38.269531 144.800781 57.1875 144.800781 L 737.789062 144.800781 C 756.707031 144.800781 772.042969 160.136719 772.042969 179.054688 Z M 772.042969 334.957031 "/></g><path style=" stroke:none;fill-rule:nonzero;fill:#035740;fill-opacity:1;" d="M 417.59375 481.960938 L 377.386719 481.960938 C 369.394531 481.960938 362.914062 475.484375 362.914062 467.492188 L 362.914062 427.285156 C 362.914062 419.292969 369.394531 412.816406 377.386719 412.816406 L 417.59375 412.816406 C 425.582031 412.816406 432.0625 419.292969 432.0625 427.285156 L 432.0625 467.492188 C 432.0625 475.484375 425.582031 481.960938 417.59375 481.960938 Z M 417.59375 481.960938 "/></g></svg>