<svg xmlns="http://www.w3.org/2000/svg" xmlns:xlink="http://www.w3.org/1999/xlink" width="1060" zoomAndPan="magnify" viewBox="0 0 794.88 723.75" height="965" preserveAspectRatio="xMidYMid meet" version="1.2"><defs><clipPath id="ee65016c17"><path d="M 228 10 L 655.59375 10 L 655.59375 597 L 228 597 Z M 228 10 "/></clipPath><clipPath id="e4243d763b"><path d="M 578 10 L 655.59375 10 L 655.59375 90 L 578 90 Z M 578 10 "/></clipPath><clipPath id="41a740f1a0"><path d="M 139.023438 89 L 550 89 L 550 713 L 139.023438 713 Z M 139.023438 89 "/></clipPath></defs><g id="465209b521"><g clip-rule="nonzero" clip-path="url(#ee65016c17)"><path style=" stroke:none;fill-rule:nonzero;fill:#a6a6a6;fill-opacity:1;" d="M 655.515625 89.703125 L 655.515625 571.636719 C 655.515625 585.195312 644.515625 596.195312 630.957031 596.195312 L 252.796875 596.195312 C 239.238281 596.195312 228.238281 585.195312 228.238281 571.636719 L 228.238281 35.046875 C 228.238281 21.488281 239.238281 10.488281 252.796875 10.488281 L 578.039062 10.488281 Z M 655.515625 89.703125 "/></g><g clip-rule="nonzero" clip-path="url(#e4243d763b)"><path style=" stroke:none;fill-rule:nonzero;fill:#0ba87d;fill-opacity:1;" d="M 578.039062 10.488281 L 655.515625 89.703125 L 601.417969 89.703125 C 588.519531 89.703125 578.058594 79.246094 578.058594 66.34375 L 578.058594 10.488281 Z M 578.039062 10.488281 "/></g><g clip-rule="nonzero" clip-path="url(#41a740f1a0)"><path style=" stroke:none;fill-rule:nonzero;fill:#0ba87d;fill-opacity:1;" d="M 139.023438 688.050781 L 139.023438 114.261719 C 139.023438 100.703125 150.023438 89.703125 163.582031 89.703125 L 524.523438 89.703125 C 538.082031 89.703125 549.082031 100.703125 549.082031 114.261719 L 549.082031 688.050781 C 549.082031 701.609375 538.082031 712.609375 524.523438 712.609375 L 163.582031 712.609375 C 150.023438 712.628906 139.023438 701.628906 139.023438 688.050781 Z M 139.023438 688.050781 "/></g><path style=" stroke:none;fill-rule:nonzero;fill:#ffffff;fill-opacity:1;" d="M 201.71875 269.214844 C 196.679688 269.214844 192.941406 265.09375 192.722656 260.214844 C 192.5 255.355469 197.019531 251.214844 201.71875 251.214844 C 201.878906 251.214844 202.039062 251.214844 202.21875 251.214844 C 214 250.933594 225.820312 251.214844 237.597656 251.214844 C 261.878906 251.214844 286.15625 251.214844 310.414062 251.214844 C 338.511719 251.214844 366.613281 251.214844 394.710938 251.214844 C 418.027344 251.214844 441.347656 251.214844 464.644531 251.214844 C 474.367188 251.214844 484.066406 251.214844 493.785156 251.214844 C 498.824219 251.214844 502.5625 255.335938 502.785156 260.214844 C 503.003906 265.074219 498.484375 269.214844 493.785156 269.214844 C 493.625 269.214844 493.464844 269.214844 493.285156 269.214844 C 481.503906 269.496094 469.6875 269.214844 457.90625 269.214844 C 433.628906 269.214844 409.347656 269.214844 385.089844 269.214844 C 356.992188 269.214844 328.894531 269.214844 300.796875 269.214844 C 277.476562 269.214844 254.15625 269.214844 230.859375 269.214844 C 221.140625 269.214844 211.421875 269.214844 201.71875 269.214844 Z M 201.71875 353.210938 C 211.441406 353.210938 221.140625 353.210938 230.859375 353.210938 C 254.175781 353.210938 277.496094 353.210938 300.796875 353.210938 C 328.894531 353.210938 356.992188 353.210938 385.089844 353.210938 C 409.371094 353.210938 433.648438 353.210938 457.90625 353.210938 C 469.6875 353.210938 481.503906 353.488281 493.285156 353.210938 C 493.445312 353.210938 493.605469 353.210938 493.785156 353.210938 C 498.484375 353.210938 503.003906 349.070312 502.785156 344.210938 C 502.5625 339.332031 498.824219 335.210938 493.785156 335.210938 C 484.066406 335.210938 474.367188 335.210938 464.644531 335.210938 C 441.328125 335.210938 418.007812 335.210938 394.710938 335.210938 C 366.613281 335.210938 338.511719 335.210938 310.414062 335.210938 C 286.136719 335.210938 261.855469 335.210938 237.597656 335.210938 C 225.820312 335.210938 214 334.929688 202.21875 335.210938 C 202.0625 335.210938 201.902344 335.210938 201.71875 335.210938 C 197.019531 335.210938 192.5 339.351562 192.722656 344.210938 C 192.941406 349.089844 196.679688 353.210938 201.71875 353.210938 Z M 201.71875 445.203125 C 211.441406 445.203125 221.140625 445.203125 230.859375 445.203125 C 254.175781 445.203125 277.496094 445.203125 300.796875 445.203125 C 328.894531 445.203125 356.992188 445.203125 385.089844 445.203125 C 409.371094 445.203125 433.648438 445.203125 457.90625 445.203125 C 469.6875 445.203125 481.503906 445.484375 493.285156 445.203125 C 493.445312 445.203125 493.605469 445.203125 493.785156 445.203125 C 498.484375 445.203125 503.003906 441.066406 502.785156 436.207031 C 502.5625 431.324219 498.824219 427.207031 493.785156 427.207031 C 484.066406 427.207031 474.367188 427.207031 464.644531 427.207031 C 441.328125 427.207031 418.007812 427.207031 394.710938 427.207031 C 366.613281 427.207031 338.511719 427.207031 310.414062 427.207031 C 286.136719 427.207031 261.855469 427.207031 237.597656 427.207031 C 225.820312 427.207031 214 426.925781 202.21875 427.207031 C 202.0625 427.207031 201.902344 427.207031 201.71875 427.207031 C 197.019531 427.207031 192.5 431.34375 192.722656 436.207031 C 192.941406 441.085938 196.679688 445.203125 201.71875 445.203125 Z M 201.71875 535.199219 C 220.980469 535.199219 240.238281 535.199219 259.476562 535.199219 C 289.9375 535.199219 320.394531 535.199219 350.851562 535.199219 C 357.832031 535.199219 364.8125 535.199219 371.792969 535.199219 C 376.492188 535.199219 381.011719 531.058594 380.789062 526.199219 C 380.570312 521.320312 376.832031 517.199219 371.792969 517.199219 C 352.53125 517.199219 333.273438 517.199219 314.035156 517.199219 C 283.574219 517.199219 253.117188 517.199219 222.660156 517.199219 C 215.679688 517.199219 208.699219 517.199219 201.71875 517.199219 C 197.019531 517.199219 192.5 521.339844 192.722656 526.199219 C 192.941406 531.078125 196.679688 535.199219 201.71875 535.199219 Z M 201.71875 535.199219 "/></g></svg>