<svg xmlns="http://www.w3.org/2000/svg" xmlns:xlink="http://www.w3.org/1999/xlink" width="1060" zoomAndPan="magnify" viewBox="0 0 794.88 723.75" height="965" preserveAspectRatio="xMidYMid meet" version="1.2"><defs><clipPath id="347208174d"><path d="M 48.238281 12.550781 L 747 12.550781 L 747 711 L 48.238281 711 Z M 48.238281 12.550781 "/></clipPath></defs><g id="de7818f850"><g clip-rule="nonzero" clip-path="url(#347208174d)"><path style=" stroke:none;fill-rule:nonzero;fill:#0ba87d;fill-opacity:1;" d="M 397.4375 12.550781 C 391.722656 12.550781 386.011719 12.691406 380.304688 12.96875 C 374.59375 13.25 368.898438 13.671875 363.210938 14.230469 C 357.523438 14.792969 351.851562 15.492188 346.199219 16.328125 C 340.546875 17.167969 334.917969 18.144531 329.3125 19.257812 C 323.707031 20.375 318.132812 21.625 312.589844 23.015625 C 307.046875 24.402344 301.539062 25.925781 296.070312 27.585938 C 290.601562 29.246094 285.175781 31.039062 279.796875 32.960938 C 274.414062 34.886719 269.085938 36.945312 263.804688 39.132812 C 258.527344 41.316406 253.300781 43.632812 248.136719 46.078125 C 242.96875 48.519531 237.867188 51.089844 232.828125 53.78125 C 227.785156 56.476562 222.816406 59.292969 217.914062 62.230469 C 213.011719 65.167969 208.183594 68.226562 203.433594 71.398438 C 198.683594 74.574219 194.011719 77.863281 189.421875 81.269531 C 184.832031 84.671875 180.328125 88.1875 175.910156 91.8125 C 171.492188 95.441406 167.164062 99.171875 162.929688 103.007812 C 158.695312 106.847656 154.558594 110.785156 150.515625 114.828125 C 146.476562 118.867188 142.535156 123.007812 138.699219 127.242188 C 134.859375 131.476562 131.128906 135.800781 127.503906 140.21875 C 123.878906 144.636719 120.363281 149.140625 116.960938 153.730469 C 113.554688 158.320312 110.265625 162.992188 107.089844 167.742188 C 103.914062 172.496094 100.859375 177.324219 97.921875 182.222656 C 94.984375 187.125 92.167969 192.097656 89.472656 197.136719 C 86.777344 202.175781 84.210938 207.28125 81.765625 212.445312 C 79.324219 217.613281 77.007812 222.835938 74.820312 228.117188 C 72.632812 233.394531 70.578125 238.726562 68.652344 244.105469 C 66.726562 249.488281 64.933594 254.910156 63.277344 260.378906 C 61.617188 265.851562 60.09375 271.355469 58.703125 276.898438 C 57.316406 282.441406 56.066406 288.015625 54.949219 293.621094 C 53.835938 299.226562 52.859375 304.855469 52.019531 310.507812 C 51.179688 316.164062 50.480469 321.832031 49.921875 327.519531 C 49.359375 333.207031 48.941406 338.90625 48.660156 344.613281 C 48.378906 350.320312 48.238281 356.03125 48.238281 361.746094 C 48.238281 367.460938 48.378906 373.175781 48.660156 378.882812 C 48.941406 384.589844 49.359375 390.289062 49.921875 395.976562 C 50.480469 401.664062 51.179688 407.332031 52.019531 412.984375 C 52.859375 418.636719 53.835938 424.269531 54.949219 429.871094 C 56.066406 435.476562 57.316406 441.050781 58.703125 446.597656 C 60.09375 452.140625 61.617188 457.644531 63.277344 463.113281 C 64.933594 468.582031 66.726562 474.007812 68.652344 479.390625 C 70.578125 484.769531 72.632812 490.101562 74.820312 495.378906 C 77.007812 500.660156 79.324219 505.882812 81.765625 511.050781 C 84.210938 516.214844 86.777344 521.316406 89.472656 526.359375 C 92.167969 531.398438 94.984375 536.371094 97.921875 541.269531 C 100.859375 546.171875 103.914062 551 107.089844 555.75 C 110.265625 560.503906 113.554688 565.175781 116.960938 569.765625 C 120.363281 574.355469 123.878906 578.859375 127.503906 583.277344 C 131.128906 587.695312 134.859375 592.019531 138.699219 596.253906 C 142.535156 600.488281 146.476562 604.625 150.515625 608.667969 C 154.558594 612.707031 158.695312 616.648438 162.929688 620.484375 C 167.164062 624.324219 171.492188 628.054688 175.910156 631.679688 C 180.328125 635.304688 184.832031 638.820312 189.421875 642.226562 C 194.011719 645.628906 198.683594 648.917969 203.433594 652.09375 C 208.183594 655.269531 213.011719 658.328125 217.914062 661.265625 C 222.816406 664.203125 227.785156 667.019531 232.828125 669.710938 C 237.867188 672.40625 242.96875 674.976562 248.136719 677.417969 C 253.300781 679.863281 258.527344 682.175781 263.804688 684.363281 C 269.085938 686.550781 274.414062 688.605469 279.796875 690.53125 C 285.175781 692.457031 290.601562 694.25 296.070312 695.910156 C 301.539062 697.566406 307.046875 699.089844 312.589844 700.480469 C 318.132812 701.867188 323.707031 703.121094 329.3125 704.234375 C 334.917969 705.351562 340.546875 706.328125 346.199219 707.164062 C 351.851562 708.003906 357.523438 708.703125 363.210938 709.265625 C 368.898438 709.824219 374.59375 710.246094 380.304688 710.523438 C 386.011719 710.804688 391.722656 710.945312 397.4375 710.945312 C 403.152344 710.945312 408.863281 710.804688 414.570312 710.523438 C 420.28125 710.246094 425.976562 709.824219 431.664062 709.265625 C 437.351562 708.703125 443.023438 708.003906 448.675781 707.164062 C 454.328125 706.328125 459.957031 705.351562 465.5625 704.234375 C 471.167969 703.121094 476.742188 701.867188 482.285156 700.480469 C 487.828125 699.089844 493.335938 697.566406 498.804688 695.910156 C 504.273438 694.25 509.699219 692.457031 515.078125 690.53125 C 520.460938 688.605469 525.789062 686.550781 531.070312 684.363281 C 536.347656 682.175781 541.574219 679.863281 546.738281 677.417969 C 551.90625 674.976562 557.007812 672.40625 562.046875 669.710938 C 567.089844 667.019531 572.058594 664.203125 576.960938 661.265625 C 581.863281 658.328125 586.691406 655.269531 591.441406 652.09375 C 596.191406 648.917969 600.863281 645.628906 605.453125 642.226562 C 610.042969 638.820312 614.546875 635.304688 618.964844 631.679688 C 623.382812 628.054688 627.710938 624.324219 631.945312 620.484375 C 636.179688 616.648438 640.316406 612.707031 644.359375 608.667969 C 648.398438 604.625 652.339844 600.488281 656.175781 596.253906 C 660.015625 592.019531 663.746094 587.695312 667.371094 583.277344 C 670.996094 578.859375 674.511719 574.355469 677.914062 569.765625 C 681.320312 565.175781 684.609375 560.503906 687.785156 555.75 C 690.960938 551 694.015625 546.171875 696.953125 541.269531 C 699.890625 536.371094 702.707031 531.398438 705.402344 526.359375 C 708.097656 521.316406 710.664062 516.214844 713.109375 511.050781 C 715.550781 505.882812 717.867188 500.660156 720.054688 495.378906 C 722.242188 490.101562 724.296875 484.769531 726.222656 479.390625 C 728.148438 474.007812 729.941406 468.582031 731.597656 463.113281 C 733.257812 457.644531 734.78125 452.140625 736.171875 446.597656 C 737.558594 441.050781 738.8125 435.476562 739.925781 429.871094 C 741.039062 424.269531 742.015625 418.636719 742.855469 412.984375 C 743.695312 407.332031 744.394531 401.664062 744.953125 395.976562 C 745.515625 390.289062 745.933594 384.589844 746.214844 378.882812 C 746.496094 373.175781 746.636719 367.460938 746.636719 361.746094 C 746.628906 356.035156 746.480469 350.324219 746.191406 344.621094 C 745.902344 338.914062 745.476562 333.21875 744.90625 327.535156 C 744.339844 321.851562 743.632812 316.183594 742.789062 310.535156 C 741.945312 304.886719 740.960938 299.257812 739.839844 293.65625 C 738.71875 288.054688 737.464844 282.484375 736.070312 276.945312 C 734.675781 271.40625 733.148438 265.902344 731.484375 260.4375 C 729.820312 254.972656 728.023438 249.550781 726.097656 244.175781 C 724.167969 238.796875 722.109375 233.472656 719.917969 228.195312 C 717.726562 222.917969 715.410156 217.699219 712.964844 212.535156 C 710.519531 207.375 707.949219 202.273438 705.253906 197.238281 C 702.554688 192.203125 699.738281 187.234375 696.800781 182.335938 C 693.859375 177.4375 690.804688 172.613281 687.628906 167.863281 C 684.453125 163.117188 681.164062 158.449219 677.757812 153.859375 C 674.355469 149.273438 670.839844 144.769531 667.214844 140.355469 C 663.589844 135.941406 659.859375 131.617188 656.023438 127.382812 C 652.1875 123.152344 648.246094 119.015625 644.207031 114.976562 C 640.167969 110.9375 636.03125 107 631.800781 103.164062 C 627.566406 99.324219 623.246094 95.59375 618.828125 91.96875 C 614.414062 88.34375 609.914062 84.832031 605.324219 81.425781 C 600.738281 78.023438 596.070312 74.734375 591.320312 71.558594 C 586.570312 68.382812 581.75 65.324219 576.851562 62.386719 C 571.953125 59.445312 566.984375 56.628906 561.949219 53.933594 C 556.910156 51.238281 551.8125 48.667969 546.648438 46.222656 C 541.484375 43.773438 536.265625 41.457031 530.992188 39.265625 C 525.714844 37.078125 520.386719 35.019531 515.011719 33.089844 C 509.632812 31.160156 504.210938 29.363281 498.746094 27.699219 C 493.28125 26.039062 487.78125 24.507812 482.238281 23.117188 C 476.699219 21.722656 471.128906 20.464844 465.527344 19.34375 C 459.925781 18.222656 454.300781 17.242188 448.648438 16.394531 C 443 15.550781 437.332031 14.84375 431.648438 14.277344 C 425.964844 13.710938 420.269531 13.28125 414.5625 12.996094 C 408.859375 12.707031 403.148438 12.558594 397.4375 12.550781 Z M 549.550781 382.699219 L 342.757812 527.488281 C 341.804688 528.15625 340.8125 528.753906 339.777344 529.285156 C 338.742188 529.816406 337.675781 530.277344 336.578125 530.660156 C 335.480469 531.046875 334.359375 531.355469 333.222656 531.589844 C 332.082031 531.820312 330.929688 531.976562 329.769531 532.050781 C 328.609375 532.125 327.449219 532.125 326.289062 532.039062 C 325.128906 531.957031 323.980469 531.796875 322.839844 531.554688 C 321.703125 531.316406 320.585938 531 319.488281 530.609375 C 318.394531 530.214844 317.332031 529.75 316.300781 529.210938 C 315.269531 528.675781 314.277344 528.070312 313.328125 527.398438 C 312.378906 526.722656 311.480469 525.988281 310.632812 525.195312 C 309.785156 524.398438 308.992188 523.546875 308.261719 522.644531 C 307.527344 521.742188 306.859375 520.792969 306.257812 519.796875 C 305.65625 518.800781 305.121094 517.769531 304.660156 516.703125 C 304.199219 515.636719 303.808594 514.542969 303.496094 513.421875 C 303.183594 512.300781 302.949219 511.164062 302.792969 510.011719 C 302.636719 508.859375 302.558594 507.699219 302.558594 506.535156 L 302.558594 216.957031 C 302.558594 215.796875 302.636719 214.636719 302.792969 213.484375 C 302.949219 212.332031 303.183594 211.195312 303.496094 210.074219 C 303.808594 208.953125 304.199219 207.859375 304.660156 206.792969 C 305.121094 205.726562 305.65625 204.695312 306.257812 203.699219 C 306.859375 202.703125 307.527344 201.753906 308.261719 200.851562 C 308.992188 199.945312 309.785156 199.097656 310.632812 198.300781 C 311.480469 197.507812 312.378906 196.773438 313.328125 196.097656 C 314.277344 195.425781 315.269531 194.820312 316.300781 194.28125 C 317.332031 193.746094 318.394531 193.28125 319.488281 192.886719 C 320.585938 192.496094 321.703125 192.179688 322.839844 191.9375 C 323.980469 191.699219 325.128906 191.539062 326.289062 191.453125 C 327.449219 191.371094 328.609375 191.367188 329.769531 191.445312 C 330.929688 191.519531 332.082031 191.675781 333.222656 191.90625 C 334.359375 192.140625 335.480469 192.449219 336.578125 192.835938 C 337.675781 193.21875 338.742188 193.679688 339.777344 194.210938 C 340.8125 194.742188 341.804688 195.339844 342.757812 196.007812 L 549.550781 340.796875 C 549.972656 341.089844 550.382812 341.394531 550.785156 341.710938 C 551.183594 342.03125 551.578125 342.359375 551.957031 342.699219 C 552.339844 343.042969 552.710938 343.394531 553.070312 343.757812 C 553.429688 344.121094 553.78125 344.496094 554.117188 344.878906 C 554.457031 345.265625 554.78125 345.65625 555.097656 346.0625 C 555.410156 346.464844 555.714844 346.878906 556.003906 347.300781 C 556.292969 347.722656 556.566406 348.15625 556.832031 348.59375 C 557.09375 349.03125 557.34375 349.480469 557.582031 349.933594 C 557.820312 350.386719 558.042969 350.847656 558.25 351.3125 C 558.460938 351.78125 558.65625 352.253906 558.835938 352.734375 C 559.015625 353.214844 559.183594 353.695312 559.332031 354.1875 C 559.484375 354.675781 559.621094 355.167969 559.742188 355.664062 C 559.867188 356.164062 559.972656 356.664062 560.0625 357.167969 C 560.15625 357.671875 560.230469 358.175781 560.292969 358.683594 C 560.355469 359.191406 560.402344 359.703125 560.433594 360.214844 C 560.460938 360.722656 560.476562 361.234375 560.476562 361.746094 C 560.476562 362.257812 560.460938 362.769531 560.433594 363.28125 C 560.402344 363.792969 560.355469 364.300781 560.292969 364.8125 C 560.230469 365.320312 560.15625 365.824219 560.0625 366.328125 C 559.972656 366.832031 559.867188 367.332031 559.742188 367.828125 C 559.621094 368.328125 559.484375 368.820312 559.332031 369.308594 C 559.183594 369.796875 559.015625 370.28125 558.835938 370.761719 C 558.65625 371.242188 558.460938 371.714844 558.25 372.179688 C 558.042969 372.648438 557.820312 373.109375 557.582031 373.5625 C 557.34375 374.015625 557.09375 374.460938 556.832031 374.902344 C 556.566406 375.339844 556.292969 375.769531 556.003906 376.195312 C 555.714844 376.617188 555.410156 377.027344 555.097656 377.433594 C 554.78125 377.835938 554.457031 378.230469 554.117188 378.617188 C 553.78125 379 553.429688 379.375 553.070312 379.738281 C 552.710938 380.101562 552.339844 380.453125 551.957031 380.796875 C 551.578125 381.136719 551.183594 381.464844 550.785156 381.785156 C 550.382812 382.101562 549.972656 382.40625 549.550781 382.699219 Z M 549.550781 382.699219 "/></g></g></svg>