<svg xmlns="http://www.w3.org/2000/svg" xmlns:xlink="http://www.w3.org/1999/xlink" width="1060" zoomAndPan="magnify" viewBox="0 0 794.88 723.75" height="965" preserveAspectRatio="xMidYMid meet" version="1.2"><metadata><ContainsAiGeneratedContent>Yes</ContainsAiGeneratedContent></metadata><defs><clipPath id="98487efee5"><path d="M 2 249 L 794 249 L 794 444.609375 L 2 444.609375 Z M 2 249 "/></clipPath></defs><g id="1a970c665f"><g clip-rule="nonzero" clip-path="url(#98487efee5)"><path style=" stroke:none;fill-rule:nonzero;fill:#dd0000;fill-opacity:1;" d="M 260.222656 249.355469 C 230.75 249.355469 211.148438 264.78125 208.429688 288.0625 C 207.855469 293.492188 207.140625 298.777344 206.425781 304.203125 L 590.027344 304.203125 C 590.027344 304.203125 590.742188 298.488281 591.316406 294.0625 C 594.175781 270.636719 584.304688 249.5 548.105469 249.5 C 548.105469 249.5 275.675781 249.5 260.222656 249.355469 Z M 26 249.5 L 19.273438 304.203125 L 193.261719 304.203125 L 199.988281 249.5 Z M 610.058594 249.5 L 603.335938 304.203125 L 791.917969 304.203125 C 791.917969 304.203125 792.203125 302.203125 792.917969 295.777344 C 797.496094 259.78125 774.316406 249.5 751.855469 249.5 Z M 600.757812 325.058594 L 586.023438 444.609375 L 651.125 444.609375 L 665.863281 325.199219 Z M 724.382812 325.058594 L 709.644531 444.609375 L 774.746094 444.609375 L 789.484375 325.058594 Z M 16.699219 325.058594 L 2.105469 444.464844 L 176.09375 444.464844 L 182.53125 392.617188 L 73.644531 392.617188 L 76.222656 370.335938 L 185.105469 370.335938 L 190.6875 325.058594 Z M 203.851562 325.058594 C 199.128906 356.195312 214.722656 370.335938 236.902344 370.335938 C 248.921875 370.335938 324.898438 370.335938 324.898438 370.335938 L 322.179688 392.761719 L 195.550781 392.761719 L 189.113281 444.609375 C 189.113281 444.609375 326.902344 444.609375 332.480469 444.609375 C 337.058594 444.324219 369.394531 443.464844 380.269531 417.042969 C 383.847656 408.472656 386.996094 377.90625 387.851562 371.476562 C 392.863281 334.054688 366.964844 325.199219 346.644531 325.199219 C 335.484375 325.058594 226.027344 325.058594 203.851562 325.058594 Z M 406.453125 325.058594 L 391.714844 444.464844 L 456.820312 444.464844 L 465.976562 370.335938 L 547.675781 370.335938 C 570.855469 370.335938 583.304688 357.910156 585.59375 341.199219 C 586.308594 335.769531 587.023438 330.484375 587.597656 325.058594 Z M 406.453125 325.058594 "/></g></g></svg>