<svg xmlns="http://www.w3.org/2000/svg" xmlns:xlink="http://www.w3.org/1999/xlink" width="1060" zoomAndPan="magnify" viewBox="0 0 794.88 723.75" height="965" preserveAspectRatio="xMidYMid meet" version="1.2"><metadata><ContainsAiGeneratedContent>Yes</ContainsAiGeneratedContent></metadata><defs><clipPath id="b15bdc1ebf"><path d="M 45.5625 9.875 L 749.570312 9.875 L 749.570312 581 L 45.5625 581 Z M 45.5625 9.875 "/></clipPath><clipPath id="bb12c24430"><path d="M 45.5625 47.359375 L 45.5625 676.140625 C 45.5625 696.84375 62.347656 713.625 83.050781 713.625 L 711.828125 713.625 C 732.53125 713.625 749.316406 696.84375 749.316406 676.140625 L 749.316406 47.359375 C 749.316406 26.65625 732.53125 9.875 711.828125 9.875 L 83.050781 9.875 C 62.347656 9.875 45.5625 26.65625 45.5625 47.359375 Z M 45.5625 47.359375 "/></clipPath><clipPath id="335ac657eb"><path d="M 45.5625 588 L 749.570312 588 L 749.570312 713.878906 L 45.5625 713.878906 Z M 45.5625 588 "/></clipPath><clipPath id="22e3074de6"><path d="M 45.5625 47.359375 L 45.5625 676.140625 C 45.5625 696.84375 62.347656 713.625 83.050781 713.625 L 711.828125 713.625 C 732.53125 713.625 749.316406 696.84375 749.316406 676.140625 L 749.316406 47.359375 C 749.316406 26.65625 732.53125 9.875 711.828125 9.875 L 83.050781 9.875 C 62.347656 9.875 45.5625 26.65625 45.5625 47.359375 Z M 45.5625 47.359375 "/></clipPath><clipPath id="35bd49be5a"><path d="M 45.5625 9.875 L 749.570312 9.875 L 749.570312 581 L 45.5625 581 Z M 45.5625 9.875 "/></clipPath><clipPath id="1a08935b34"><path d="M 45.5625 47.359375 L 45.5625 676.140625 C 45.5625 696.84375 62.347656 713.625 83.050781 713.625 L 711.828125 713.625 C 732.53125 713.625 749.316406 696.84375 749.316406 676.140625 L 749.316406 47.359375 C 749.316406 26.65625 732.53125 9.875 711.828125 9.875 L 83.050781 9.875 C 62.347656 9.875 45.5625 26.65625 45.5625 47.359375 Z M 45.5625 47.359375 "/></clipPath><clipPath id="c54219381a"><path d="M 157 177 L 729 177 L 729 554 L 157 554 Z M 157 177 "/></clipPath><clipPath id="aa3725a11f"><path d="M 45.5625 47.359375 L 45.5625 676.140625 C 45.5625 696.84375 62.347656 713.625 83.050781 713.625 L 711.828125 713.625 C 732.53125 713.625 749.316406 696.84375 749.316406 676.140625 L 749.316406 47.359375 C 749.316406 26.65625 732.53125 9.875 711.828125 9.875 L 83.050781 9.875 C 62.347656 9.875 45.5625 26.65625 45.5625 47.359375 Z M 45.5625 47.359375 "/></clipPath><clipPath id="912f98b573"><path d="M 76 619 L 719 619 L 719 683 L 76 683 Z M 76 619 "/></clipPath><clipPath id="b1b9c1d0c7"><path d="M 45.5625 47.359375 L 45.5625 676.140625 C 45.5625 696.84375 62.347656 713.625 83.050781 713.625 L 711.828125 713.625 C 732.53125 713.625 749.316406 696.84375 749.316406 676.140625 L 749.316406 47.359375 C 749.316406 26.65625 732.53125 9.875 711.828125 9.875 L 83.050781 9.875 C 62.347656 9.875 45.5625 26.65625 45.5625 47.359375 Z M 45.5625 47.359375 "/></clipPath></defs><g id="f5cc8be47a"><g clip-rule="nonzero" clip-path="url(#b15bdc1ebf)"><g clip-rule="nonzero" clip-path="url(#bb12c24430)"><path style=" stroke:none;fill-rule:nonzero;fill:#003366;fill-opacity:1;" d="M 45.5625 9.875 L 749.570312 9.875 L 749.570312 580.890625 L 45.5625 580.890625 Z M 45.5625 9.875 "/></g></g><g clip-rule="nonzero" clip-path="url(#335ac657eb)"><g clip-rule="nonzero" clip-path="url(#22e3074de6)"><path style=" stroke:none;fill-rule:nonzero;fill:#c20017;fill-opacity:1;" d="M 45.5625 588.699219 L 749.570312 588.699219 L 749.570312 713.878906 L 45.5625 713.878906 Z M 45.5625 588.699219 "/></g></g><g clip-rule="nonzero" clip-path="url(#35bd49be5a)"><g clip-rule="nonzero" clip-path="url(#1a08935b34)"><path style=" stroke:none;fill-rule:nonzero;fill:#ffffff;fill-opacity:1;" d="M 749.570312 418.597656 L 748.257812 418.597656 C 740.449219 399.441406 731.613281 380.746094 721.753906 362.5625 L 730.417969 362.5625 C 737.257812 375.671875 743.640625 388.953125 749.570312 402.464844 Z M 45.5625 88.085938 C 80.222656 76.457031 115.851562 68.246094 152.105469 63.515625 L 162.421875 9.875 L 246.050781 9.875 L 227.292969 58.554688 C 249.8125 58.5 272.269531 59.808594 294.617188 62.488281 L 320.667969 9.875 L 412.558594 9.875 L 368.78125 76.339844 C 426.867188 91.390625 482.160156 115.558594 532.554688 147.996094 C 542.585938 154.4375 552.335938 161.222656 561.796875 168.234375 L 548.515625 168.234375 C 492.820312 129.011719 430.402344 100.167969 364.332031 83.238281 L 310.804688 166.292969 L 272.386719 166.292969 L 272.386719 222.84375 L 177.585938 377.496094 L 147.261719 377.496094 L 147.261719 429.199219 L 50.125 580.890625 L 47.046875 580.890625 L 291.082031 69.785156 C 269.023438 67.21875 246.789062 66.023438 224.613281 66.195312 L 46.246094 580.890625 L 45.5625 580.890625 M 45.5625 571.371094 L 150.394531 71.609375 C 114.882812 76.570312 79.9375 85.007812 46.019531 96.691406 L 45.5625 96.691406 M 50.125 580.890625 Z M 46.988281 580.890625 Z M 408.910156 9.875 Z M 408.910156 9.875 "/></g></g><g clip-rule="nonzero" clip-path="url(#c54219381a)"><g clip-rule="nonzero" clip-path="url(#aa3725a11f)"><path style=" stroke:none;fill-rule:nonzero;fill:#ffffff;fill-opacity:1;" d="M 334.976562 296.777344 L 386.394531 296.777344 L 386.394531 248.722656 L 334.976562 248.722656 L 334.976562 225.808594 L 397.566406 225.808594 L 394.148438 177.636719 L 282.644531 177.636719 L 282.644531 354.011719 L 334.976562 354.011719 Z M 552.503906 353.496094 L 608.769531 353.496094 L 634.421875 310.230469 L 660.699219 353.554688 L 718.273438 353.554688 L 662.753906 262.175781 L 712.746094 177.921875 L 655.742188 177.921875 L 634.25 214.519531 L 611.960938 177.808594 L 553.988281 177.808594 L 605.460938 262.574219 Z M 487.0625 355.4375 C 536.828125 356.121094 577.757812 316.445312 578.613281 266.679688 C 576.503906 216.058594 533.808594 176.726562 483.132812 178.777344 C 435.417969 180.773438 397.226562 218.964844 395.230469 266.679688 C 396.027344 316.5 437.070312 356.234375 486.894531 355.4375 Z M 470.875 227.972656 C 470.933594 219.25 477.828125 212.183594 486.496094 211.785156 C 495.445312 211.957031 502.683594 219.082031 503.027344 227.972656 L 503.027344 302.820312 C 502.398438 311.714844 494.703125 318.382812 485.808594 317.753906 C 477.773438 317.1875 471.445312 310.800781 470.875 302.820312 Z M 346.890625 485.691406 L 400.132812 485.691406 L 400.132812 450.40625 L 346.890625 450.40625 L 346.890625 426.40625 L 411.761719 426.40625 L 411.761719 388.214844 L 305.789062 388.214844 L 305.789062 553.128906 L 412.558594 553.128906 L 412.558594 513.453125 L 346.890625 513.453125 Z M 576.046875 388.214844 L 555.640625 482.613281 L 535.6875 388.214844 L 500.460938 388.214844 L 481.476562 483.582031 L 461.699219 388.214844 L 419.683594 388.214844 L 457.820312 553.128906 L 496.128906 553.128906 L 514.882812 458.613281 L 534.207031 553.128906 L 571.714844 553.128906 L 610.023438 388.214844 Z M 715.140625 462.71875 C 704.195312 452.628906 691.652344 449.949219 677.574219 445.960938 C 660.929688 441.285156 651.75 440.773438 651.75 431.082031 C 652.433594 423.898438 658.820312 418.652344 666 419.339844 C 666.058594 419.339844 666.117188 419.339844 666.117188 419.339844 C 676.71875 418.484375 686.410156 425.496094 688.859375 435.871094 L 724.832031 423.898438 C 718.160156 398.816406 694.902344 381.773438 668.964844 382.910156 C 631.398438 382.910156 608.425781 406 608.425781 437.066406 C 608.425781 463.914062 624.046875 477.140625 655.34375 486.488281 C 674.039062 492.132812 683.957031 491.675781 683.957031 503.703125 C 683.957031 510.03125 678.085938 514.992188 668.339844 514.992188 C 655.457031 516.472656 643.710938 507.636719 641.488281 494.867188 L 602.042969 503.535156 C 608.769531 534.828125 632.085938 553.414062 667.824219 553.414062 C 685.496094 553.867188 702.542969 546.855469 714.742188 534.089844 C 723.746094 524.167969 728.707031 511.230469 728.59375 497.777344 C 729.332031 484.664062 724.375 471.894531 715.082031 462.660156 L 715.140625 462.660156 Z M 254.597656 470.984375 L 205.460938 388.953125 L 157.804688 388.953125 L 157.804688 553.242188 L 199.648438 553.242188 L 199.648438 457.246094 L 255.738281 553.015625 L 295.414062 553.015625 L 295.414062 388.726562 L 254.714844 388.726562 Z M 254.597656 470.984375 "/></g></g><g clip-rule="nonzero" clip-path="url(#912f98b573)"><g clip-rule="nonzero" clip-path="url(#b1b9c1d0c7)"><path style=" stroke:none;fill-rule:nonzero;fill:#ffffff;fill-opacity:1;" d="M 113.226562 645.304688 C 117.730469 644.507812 122.179688 647.070312 123.773438 651.347656 L 147.261719 651.347656 C 145.777344 640.230469 133.179688 633.617188 113.570312 633.617188 C 91.109375 633.902344 76.859375 643.535156 76.859375 659.214844 C 76.859375 673.464844 90.882812 682.699219 112.144531 682.699219 C 131.753906 682.699219 144.582031 675.914062 146.976562 664.34375 L 123.832031 664.34375 C 122.519531 668.789062 118.816406 671.011719 112.828125 671.011719 C 105.019531 671.011719 100.800781 666.851562 100.800781 658.585938 C 100.800781 650.320312 105.191406 645.304688 113.226562 645.304688 Z M 341.644531 672.210938 L 341.644531 654.9375 C 342.558594 649.578125 340.789062 644.105469 336.972656 640.289062 C 329.105469 635.554688 319.925781 633.445312 310.75 634.359375 C 290.511719 634.359375 279.453125 639.261719 277.171875 649.976562 L 298.664062 649.976562 C 299.578125 646.613281 303.507812 644.792969 310.234375 644.792969 C 316.960938 644.792969 319.472656 646.214844 319.472656 648.839844 L 319.472656 649.921875 C 319.472656 653.457031 310.636719 652.714844 294.105469 655.222656 C 281.503906 657.105469 275.179688 661.777344 275.179688 669.359375 C 275.179688 676.941406 283.445312 682.527344 297.46875 682.527344 C 305.449219 682.757812 313.371094 680.589844 320.15625 676.371094 C 320.382812 677.96875 320.78125 679.5625 321.351562 681.046875 L 344.835938 681.046875 L 344.835938 679.335938 C 342.785156 678.539062 341.703125 676.144531 341.703125 672.039062 Z M 319.355469 664.855469 C 319.355469 669.703125 313.714844 672.667969 305.847656 672.667969 C 300.601562 672.667969 297.238281 670.386719 297.238281 667.25 C 297.238281 664.117188 299.691406 663.089844 305.046875 662.175781 C 309.894531 661.722656 314.683594 660.867188 319.355469 659.613281 Z M 424.644531 634.417969 C 416.71875 633.730469 408.910156 636.410156 403.039062 641.769531 L 403.039062 635.671875 L 380.351562 635.671875 L 380.351562 681.273438 L 403.835938 681.273438 L 403.835938 656.761719 C 403.835938 648.953125 407.199219 645.761719 415.636719 645.761719 C 424.074219 645.761719 425.441406 649.808594 425.441406 658.1875 L 425.441406 681.101562 L 448.929688 681.101562 L 448.929688 651.289062 C 448.644531 639.773438 442.203125 634.417969 424.929688 634.417969 Z M 221.707031 635.042969 C 213.785156 634.472656 205.917969 637.039062 199.816406 642.167969 L 199.816406 620.050781 L 176.332031 620.050781 L 176.332031 681.84375 L 199.816406 681.84375 L 199.816406 657.503906 C 199.816406 649.695312 203.179688 646.5 211.617188 646.5 C 220.054688 646.5 221.421875 650.546875 221.421875 658.929688 L 221.421875 681.84375 L 244.910156 681.84375 L 244.910156 650.546875 C 244.910156 640.402344 236.871094 635.042969 221.9375 635.042969 Z M 534.605469 634.417969 C 526.683594 633.730469 518.871094 636.410156 513 641.769531 L 513 635.671875 L 490.710938 635.671875 L 490.710938 681.273438 L 514.199219 681.273438 L 514.199219 656.761719 C 514.199219 648.953125 517.5625 645.761719 526 645.761719 C 534.433594 645.761719 535.804688 649.808594 535.804688 658.1875 L 535.804688 681.101562 L 559.289062 681.101562 L 559.289062 651.289062 C 559.003906 639.773438 552.503906 634.417969 535.175781 634.417969 Z M 625.8125 633.960938 C 604.09375 633.960938 590.015625 643.253906 590.015625 658.527344 C 590.015625 673.804688 604.378906 682.640625 626.382812 682.640625 C 644.625 682.640625 657.679688 676.828125 661.613281 667.023438 L 639.152344 667.023438 C 637.5 670.328125 633.507812 672.039062 627.183594 672.039062 C 618.914062 672.039062 614.414062 668.617188 614.414062 662.175781 L 662.582031 662.175781 C 662.636719 661.265625 662.636719 660.410156 662.582031 659.5 C 662.753906 643.535156 648.785156 634.015625 626.382812 634.015625 Z M 613.214844 653.398438 C 614.128906 647.300781 619.03125 643.992188 626.496094 643.992188 C 633.964844 643.992188 639.664062 647.414062 639.78125 653.398438 Z M 694.789062 619.992188 L 694.789062 681.785156 L 718.273438 681.785156 L 718.273438 619.992188 Z M 694.789062 619.992188 "/></g></g></g></svg>