<svg xmlns="http://www.w3.org/2000/svg" xmlns:xlink="http://www.w3.org/1999/xlink" width="1060" zoomAndPan="magnify" viewBox="0 0 794.88 723.75" height="965" preserveAspectRatio="xMidYMid meet" version="1.2"><defs><clipPath id="9932d06a66"><path d="M 52.003906 32.628906 L 733.453125 32.628906 L 733.453125 700.414062 L 52.003906 700.414062 Z M 52.003906 32.628906 "/></clipPath><clipPath id="34d187552a"><path d="M 52.003906 182.53125 L 52.003906 556.484375 C 52.003906 639.273438 119.113281 706.382812 201.902344 706.382812 L 583.484375 706.382812 C 666.34375 706.382812 733.453125 639.273438 733.453125 556.484375 L 733.453125 182.53125 C 733.453125 99.738281 666.34375 32.628906 583.484375 32.628906 L 201.902344 32.628906 C 119.113281 32.628906 52.003906 99.738281 52.003906 182.53125 Z M 52.003906 182.53125 "/></clipPath><clipPath id="43f1dcc202"><path d="M 554.640625 700.414062 L 230.746094 700.414062 C 132.0625 700.414062 52.003906 621.003906 52.003906 523.183594 L 52.003906 209.863281 C 52.003906 112.039062 132.0625 32.628906 230.746094 32.628906 L 554.640625 32.628906 C 653.324219 32.628906 733.453125 112.039062 733.453125 209.863281 L 733.453125 523.183594 C 733.453125 621.003906 653.324219 700.414062 554.640625 700.414062 Z M 554.640625 700.414062 "/></clipPath><linearGradient x1="10.208826" gradientTransform="matrix(0.869492,0,0,0.861758,45.045005,21.030236)" y1="11.257825" x2="789.528365" gradientUnits="userSpaceOnUse" y2="790.576345" id="d6a37d3c06"><stop style="stop-color:#48efab;stop-opacity:1;" offset="0"/><stop style="stop-color:#48efab;stop-opacity:1;" offset="0.0625"/><stop style="stop-color:#48eeac;stop-opacity:1;" offset="0.09375"/><stop style="stop-color:#48edac;stop-opacity:1;" offset="0.101562"/><stop style="stop-color:#48edad;stop-opacity:1;" offset="0.109375"/><stop style="stop-color:#48ecad;stop-opacity:1;" offset="0.117187"/><stop style="stop-color:#48ebad;stop-opacity:1;" offset="0.125"/><stop style="stop-color:#48ebad;stop-opacity:1;" offset="0.132812"/><stop style="stop-color:#48ebae;stop-opacity:1;" offset="0.140625"/><stop style="stop-color:#48eaae;stop-opacity:1;" offset="0.144531"/><stop style="stop-color:#48e9ae;stop-opacity:1;" offset="0.148437"/><stop style="stop-color:#48e9ae;stop-opacity:1;" offset="0.15625"/><stop style="stop-color:#48e9af;stop-opacity:1;" offset="0.164062"/><stop style="stop-color:#48e8af;stop-opacity:1;" offset="0.171875"/><stop style="stop-color:#48e7b0;stop-opacity:1;" offset="0.179687"/><stop style="stop-color:#48e6b0;stop-opacity:1;" offset="0.1875"/><stop style="stop-color:#48e5b0;stop-opacity:1;" offset="0.191406"/><stop style="stop-color:#48e5b1;stop-opacity:1;" offset="0.195312"/><stop style="stop-color:#48e4b1;stop-opacity:1;" offset="0.203125"/><stop style="stop-color:#48e4b1;stop-opacity:1;" offset="0.207031"/><stop style="stop-color:#48e4b2;stop-opacity:1;" offset="0.210937"/><stop style="stop-color:#47e3b2;stop-opacity:1;" offset="0.21875"/><stop style="stop-color:#47e2b2;stop-opacity:1;" offset="0.226562"/><stop style="stop-color:#47e2b2;stop-opacity:1;" offset="0.230469"/><stop style="stop-color:#47e2b3;stop-opacity:1;" offset="0.234375"/><stop style="stop-color:#47e1b3;stop-opacity:1;" offset="0.242187"/><stop style="stop-color:#47e0b4;stop-opacity:1;" offset="0.25"/><stop style="stop-color:#47e0b4;stop-opacity:1;" offset="0.265625"/><stop style="stop-color:#47dfb5;stop-opacity:1;" offset="0.269531"/><stop style="stop-color:#47deb5;stop-opacity:1;" offset="0.273438"/><stop style="stop-color:#47deb5;stop-opacity:1;" offset="0.28125"/><stop style="stop-color:#47deb5;stop-opacity:1;" offset="0.289062"/><stop style="stop-color:#47ddb6;stop-opacity:1;" offset="0.296875"/><stop style="stop-color:#47dcb7;stop-opacity:1;" offset="0.3125"/><stop style="stop-color:#47dbb7;stop-opacity:1;" offset="0.316406"/><stop style="stop-color:#47dab7;stop-opacity:1;" offset="0.320312"/><stop style="stop-color:#47dab7;stop-opacity:1;" offset="0.328125"/><stop style="stop-color:#47dab8;stop-opacity:1;" offset="0.335937"/><stop style="stop-color:#47d9b8;stop-opacity:1;" offset="0.34375"/><stop style="stop-color:#47d8b8;stop-opacity:1;" offset="0.351562"/><stop style="stop-color:#47d7b9;stop-opacity:1;" offset="0.355469"/><stop style="stop-color:#47d7b9;stop-opacity:1;" offset="0.359375"/><stop style="stop-color:#47d6b9;stop-opacity:1;" offset="0.367187"/><stop style="stop-color:#47d6b9;stop-opacity:1;" offset="0.375"/><stop style="stop-color:#47d5ba;stop-opacity:1;" offset="0.382812"/><stop style="stop-color:#47d4ba;stop-opacity:1;" offset="0.390625"/><stop style="stop-color:#47d4bb;stop-opacity:1;" offset="0.398438"/><stop style="stop-color:#47d3bb;stop-opacity:1;" offset="0.40625"/><stop style="stop-color:#47d2bb;stop-opacity:1;" offset="0.421875"/><stop style="stop-color:#47d2bc;stop-opacity:1;" offset="0.429687"/><stop style="stop-color:#47d1bd;stop-opacity:1;" offset="0.4375"/><stop style="stop-color:#47d0bd;stop-opacity:1;" offset="0.441406"/><stop style="stop-color:#47cfbe;stop-opacity:1;" offset="0.445312"/><stop style="stop-color:#47cfbe;stop-opacity:1;" offset="0.453125"/><stop style="stop-color:#47cfbe;stop-opacity:1;" offset="0.460937"/><stop style="stop-color:#47cebe;stop-opacity:1;" offset="0.46875"/><stop style="stop-color:#47cdbf;stop-opacity:1;" offset="0.476562"/><stop style="stop-color:#47ccc0;stop-opacity:1;" offset="0.480469"/><stop style="stop-color:#47ccc0;stop-opacity:1;" offset="0.484375"/><stop style="stop-color:#46cbc0;stop-opacity:1;" offset="0.488281"/><stop style="stop-color:#46cbc0;stop-opacity:1;" offset="0.492187"/><stop style="stop-color:#46cac1;stop-opacity:1;" offset="0.497169"/><stop style="stop-color:#46cac1;stop-opacity:1;" offset="0.5"/><stop style="stop-color:#46c9c1;stop-opacity:1;" offset="0.503906"/><stop style="stop-color:#46c9c1;stop-opacity:1;" offset="0.507812"/><stop style="stop-color:#46c8c2;stop-opacity:1;" offset="0.515625"/><stop style="stop-color:#46c8c2;stop-opacity:1;" offset="0.523438"/><stop style="stop-color:#46c7c2;stop-opacity:1;" offset="0.53125"/><stop style="stop-color:#46c6c3;stop-opacity:1;" offset="0.539062"/><stop style="stop-color:#46c5c3;stop-opacity:1;" offset="0.546875"/><stop style="stop-color:#46c5c4;stop-opacity:1;" offset="0.554688"/><stop style="stop-color:#46c5c4;stop-opacity:1;" offset="0.5625"/><stop style="stop-color:#46c4c5;stop-opacity:1;" offset="0.566406"/><stop style="stop-color:#46c3c5;stop-opacity:1;" offset="0.570312"/><stop style="stop-color:#46c3c5;stop-opacity:1;" offset="0.578125"/><stop style="stop-color:#46c2c6;stop-opacity:1;" offset="0.59375"/><stop style="stop-color:#46c1c6;stop-opacity:1;" offset="0.601562"/><stop style="stop-color:#46c0c6;stop-opacity:1;" offset="0.605469"/><stop style="stop-color:#46bfc7;stop-opacity:1;" offset="0.609375"/><stop style="stop-color:#46bec7;stop-opacity:1;" offset="0.617188"/><stop style="stop-color:#46bec7;stop-opacity:1;" offset="0.625"/><stop style="stop-color:#46bdc8;stop-opacity:1;" offset="0.632812"/><stop style="stop-color:#46bcc8;stop-opacity:1;" offset="0.640625"/><stop style="stop-color:#46bbc9;stop-opacity:1;" offset="0.644531"/><stop style="stop-color:#46bbc9;stop-opacity:1;" offset="0.648438"/><stop style="stop-color:#46bbc9;stop-opacity:1;" offset="0.65625"/><stop style="stop-color:#46baca;stop-opacity:1;" offset="0.664062"/><stop style="stop-color:#46b9ca;stop-opacity:1;" offset="0.671875"/><stop style="stop-color:#45b9ca;stop-opacity:1;" offset="0.679688"/><stop style="stop-color:#45b8cb;stop-opacity:1;" offset="0.6875"/><stop style="stop-color:#45b7cb;stop-opacity:1;" offset="0.691406"/><stop style="stop-color:#45b7cc;stop-opacity:1;" offset="0.695312"/><stop style="stop-color:#45b7cc;stop-opacity:1;" offset="0.703125"/><stop style="stop-color:#45b6cd;stop-opacity:1;" offset="0.710938"/><stop style="stop-color:#45b5cd;stop-opacity:1;" offset="0.71875"/><stop style="stop-color:#45b4ce;stop-opacity:1;" offset="0.726562"/><stop style="stop-color:#45b3ce;stop-opacity:1;" offset="0.730469"/><stop style="stop-color:#45b3ce;stop-opacity:1;" offset="0.734375"/><stop style="stop-color:#45b2ce;stop-opacity:1;" offset="0.742188"/><stop style="stop-color:#45b1cf;stop-opacity:1;" offset="0.75"/><stop style="stop-color:#45b0d0;stop-opacity:1;" offset="0.765625"/><stop style="stop-color:#45afd0;stop-opacity:1;" offset="0.769531"/><stop style="stop-color:#45afd0;stop-opacity:1;" offset="0.773438"/><stop style="stop-color:#45aed1;stop-opacity:1;" offset="0.78125"/><stop style="stop-color:#45add1;stop-opacity:1;" offset="0.789062"/><stop style="stop-color:#45add2;stop-opacity:1;" offset="0.796875"/><stop style="stop-color:#45add2;stop-opacity:1;" offset="0.804688"/><stop style="stop-color:#45acd2;stop-opacity:1;" offset="0.8125"/><stop style="stop-color:#45abd2;stop-opacity:1;" offset="0.816406"/><stop style="stop-color:#45aad3;stop-opacity:1;" offset="0.820312"/><stop style="stop-color:#45aad3;stop-opacity:1;" offset="0.828125"/><stop style="stop-color:#45aad3;stop-opacity:1;" offset="0.835938"/><stop style="stop-color:#45a9d4;stop-opacity:1;" offset="0.84375"/><stop style="stop-color:#45a8d4;stop-opacity:1;" offset="0.851562"/><stop style="stop-color:#44a7d5;stop-opacity:1;" offset="0.859375"/><stop style="stop-color:#44a6d5;stop-opacity:1;" offset="0.867188"/><stop style="stop-color:#44a5d6;stop-opacity:1;" offset="0.875"/><stop style="stop-color:#44a4d6;stop-opacity:1;" offset="0.882812"/><stop style="stop-color:#44a3d7;stop-opacity:1;" offset="0.890625"/><stop style="stop-color:#44a3d7;stop-opacity:1;" offset="0.898438"/><stop style="stop-color:#44a2d8;stop-opacity:1;" offset="0.90625"/><stop style="stop-color:#44a1d8;stop-opacity:1;" offset="0.914062"/><stop style="stop-color:#44a0d8;stop-opacity:1;" offset="0.917969"/><stop style="stop-color:#44a0d9;stop-opacity:1;" offset="0.921875"/><stop style="stop-color:#44a0d9;stop-opacity:1;" offset="0.9375"/><stop style="stop-color:#44a0d9;stop-opacity:1;" offset="1"/></linearGradient><clipPath id="2030f97f72"><path d="M 142.273438 119.089844 L 646.566406 119.089844 L 646.566406 623.304688 L 142.273438 623.304688 Z M 142.273438 119.089844 "/></clipPath></defs><g id="962803618f"><g clip-rule="nonzero" clip-path="url(#9932d06a66)"><g clip-rule="nonzero" clip-path="url(#34d187552a)"><g clip-rule="nonzero" clip-path="url(#43f1dcc202)"><path style=" stroke:none;fill-rule:nonzero;fill:url(#d6a37d3c06);" d="M 52.003906 32.628906 L 52.003906 700.414062 L 733.453125 700.414062 L 733.453125 32.628906 Z M 52.003906 32.628906 "/></g></g></g><path style=" stroke:none;fill-rule:nonzero;fill:#000000;fill-opacity:1;" d="M 388.703125 520.015625 L 388.703125 444.996094 C 371.65625 445.5 355.039062 448.160156 338.710938 452.980469 C 350.507812 478.945312 367.195312 501.242188 388.703125 520.015625 Z M 388.703125 520.015625 "/><path style=" stroke:none;fill-rule:nonzero;fill:#000000;fill-opacity:1;" d="M 327.851562 456.503906 C 312.816406 461.898438 298.71875 469.019531 285.414062 477.867188 C 310.011719 502.539062 339.285156 517.425781 374.605469 522.605469 C 354.75 503.546875 339.144531 481.535156 327.851562 456.503906 Z M 327.851562 456.503906 "/><path style=" stroke:none;fill-rule:nonzero;fill:#000000;fill-opacity:1;" d="M 321.234375 365.226562 L 388.703125 365.226562 L 388.703125 302.867188 C 370.863281 302.433594 353.386719 299.699219 336.265625 294.808594 C 326.84375 317.324219 321.878906 340.773438 321.234375 365.226562 Z M 321.234375 365.226562 "/><path style=" stroke:none;fill-rule:nonzero;fill:#000000;fill-opacity:1;" d="M 341.15625 284.234375 C 352.523438 288.191406 381.867188 292.4375 388.703125 291.140625 L 388.703125 222.160156 C 368.417969 240 352.738281 260.425781 341.15625 284.234375 Z M 341.15625 284.234375 "/><path style=" stroke:none;fill-rule:nonzero;fill:#000000;fill-opacity:1;" d="M 459.046875 280.710938 C 468.039062 278.625 490.910156 267.621094 500.261719 260.929688 C 476.308594 238.347656 448.1875 224.609375 414.597656 219.644531 C 433.367188 237.84375 448.042969 257.980469 459.046875 280.710938 Z M 459.046875 280.710938 "/><path style=" stroke:none;fill-rule:nonzero;fill:#000000;fill-opacity:1;" d="M 361.152344 436.292969 C 370.214844 434.855469 379.351562 434.277344 388.628906 433.269531 L 388.628906 377.023438 L 321.234375 377.023438 C 321.808594 399.394531 326.125 421.042969 334.109375 441.976562 C 343.457031 440.03125 352.234375 437.730469 361.152344 436.292969 Z M 361.152344 436.292969 "/><path style=" stroke:none;fill-rule:nonzero;fill:#000000;fill-opacity:1;" d="M 349.429688 248.632812 C 356.765625 238.5625 365.324219 229.28125 373.308594 219.859375 C 341.085938 224.535156 312.890625 238.273438 288.792969 261.003906 C 301.523438 269.132812 314.976562 275.675781 329.21875 280.640625 C 336.050781 269.632812 342.164062 258.703125 349.429688 248.632812 Z M 349.429688 248.632812 "/><path style=" stroke:none;fill-rule:nonzero;fill:#000000;fill-opacity:1;" d="M 325.046875 292.21875 L 280.089844 270.136719 C 256.640625 297.039062 243.765625 328.757812 241.894531 365.226562 L 309.867188 365.226562 C 310.515625 339.980469 315.621094 315.667969 325.046875 292.21875 Z M 325.046875 292.21875 "/><path style=" stroke:none;fill-rule:nonzero;fill:#000000;fill-opacity:1;" d="M 309.867188 377.09375 L 241.894531 377.09375 C 243.695312 411.910156 255.492188 442.476562 277.644531 469.378906 C 291.957031 459.667969 307.277344 451.902344 323.535156 446.003906 C 315.117188 423.777344 310.515625 400.832031 309.867188 377.09375 Z M 309.867188 377.09375 "/><path style=" stroke:none;fill-rule:nonzero;fill:#000000;fill-opacity:1;" d="M 414.597656 522.605469 C 449.769531 517.425781 479.117188 502.609375 503.785156 477.867188 C 490.480469 468.949219 476.308594 461.828125 461.277344 456.503906 C 449.984375 481.605469 434.449219 503.617188 414.597656 522.605469 Z M 414.597656 522.605469 "/><path style=" stroke:none;fill-rule:nonzero;fill:#000000;fill-opacity:1;" d="M 400.425781 365.226562 L 467.894531 365.226562 C 467.246094 340.773438 462.285156 317.324219 452.863281 294.808594 C 435.453125 299.84375 418.121094 302.289062 400.425781 303.007812 Z M 400.425781 365.226562 "/><path style=" stroke:none;fill-rule:nonzero;fill:#000000;fill-opacity:1;" d="M 475.230469 412.195312 C 472.929688 423.632812 469.332031 434.78125 466.601562 445.285156 L 512.203125 468.515625 C 533.710938 442.40625 545.578125 411.765625 547.230469 377.09375 L 480.050781 377.09375 C 478.46875 389.035156 477.460938 400.761719 475.230469 412.195312 Z M 475.230469 412.195312 "/><g clip-rule="nonzero" clip-path="url(#2030f97f72)"><path style=" stroke:none;fill-rule:nonzero;fill:#000000;fill-opacity:1;" d="M 394.457031 119.089844 C 255.203125 119.089844 142.273438 232.015625 142.273438 371.195312 C 142.273438 510.449219 255.203125 623.304688 394.457031 623.304688 C 533.636719 623.304688 646.566406 510.449219 646.566406 371.195312 C 646.566406 232.015625 533.636719 119.089844 394.457031 119.089844 Z M 558.738281 380.691406 L 558.09375 384.144531 C 557.375 390.042969 556.941406 396.011719 555.789062 401.910156 C 548.308594 439.816406 529.753906 471.320312 500.40625 496.425781 C 477.820312 515.773438 451.855469 527.929688 422.507812 532.75 C 416.179688 533.828125 409.847656 534.472656 403.519531 535.335938 L 385.609375 535.335938 L 382.804688 534.761719 C 376.472656 533.972656 370.070312 533.46875 363.8125 532.316406 C 321.878906 523.972656 287.640625 502.753906 262.539062 468.300781 C 230.890625 424.640625 222.1875 376.230469 237.363281 324.445312 C 259.015625 250.644531 328.714844 202.527344 405.460938 207.417969 C 441.136719 209.789062 472.785156 222.523438 500.046875 245.609375 C 530.542969 271.359375 549.316406 304.015625 556.292969 343.503906 C 557.300781 349.402344 557.949219 355.515625 558.738281 361.488281 Z M 558.738281 380.691406 "/></g><path style=" stroke:none;fill-rule:nonzero;fill:#000000;fill-opacity:1;" d="M 464.082031 292.21875 C 473.503906 315.238281 478.46875 339.691406 479.332031 365.226562 L 547.230469 365.226562 C 545.363281 328.757812 532.558594 297.039062 509.109375 270.136719 Z M 464.082031 292.21875 "/><path style=" stroke:none;fill-rule:nonzero;fill:#000000;fill-opacity:1;" d="M 400.570312 444.996094 L 400.570312 520.015625 C 422.003906 501.242188 438.621094 478.875 450.417969 452.980469 C 434.160156 448.089844 417.542969 445.5 400.570312 444.996094 Z M 400.570312 444.996094 "/><path style=" stroke:none;fill-rule:nonzero;fill:#000000;fill-opacity:1;" d="M 400.425781 222.234375 L 400.425781 291.644531 C 416.609375 291.140625 432.507812 288.695312 448.113281 284.234375 C 436.390625 260.355469 420.492188 239.710938 400.425781 222.234375 Z M 400.425781 222.234375 "/><path style=" stroke:none;fill-rule:nonzero;fill:#000000;fill-opacity:1;" d="M 467.464844 377.023438 L 400.425781 377.023438 L 400.425781 433.703125 C 418.910156 434.207031 436.964844 437.082031 454.730469 442.335938 C 462.140625 425.789062 469.261719 389.105469 467.464844 377.023438 Z M 467.464844 377.023438 "/></g></svg>