<svg xmlns="http://www.w3.org/2000/svg" xmlns:xlink="http://www.w3.org/1999/xlink" width="1060" zoomAndPan="magnify" viewBox="0 0 794.88 723.75" height="965" preserveAspectRatio="xMidYMid meet" version="1.2"><defs><clipPath id="791cb783cc"><path d="M 53.480469 17.792969 L 741.742188 17.792969 L 741.742188 706 L 53.480469 706 Z M 53.480469 17.792969 "/></clipPath></defs><g id="36b76fab2a"><g clip-rule="nonzero" clip-path="url(#791cb783cc)"><path style=" stroke:none;fill-rule:nonzero;fill:#0ba87d;fill-opacity:1;" d="M 397.4375 17.792969 C 207.4375 17.792969 53.480469 171.746094 53.480469 361.746094 C 53.480469 551.746094 207.4375 705.703125 397.4375 705.703125 C 587.4375 705.703125 741.390625 551.746094 741.390625 361.746094 C 741.390625 171.746094 587.4375 17.792969 397.4375 17.792969 Z M 315.988281 568.945312 C 315.300781 597.5625 310.761719 626.179688 302.78125 653.695312 C 301.40625 658.238281 300.027344 662.777344 298.929688 667.316406 C 289.984375 664.425781 281.179688 661.261719 272.648438 657.546875 C 234.402344 641.3125 200.144531 618.199219 170.5625 588.757812 C 141.121094 559.316406 117.871094 524.917969 101.773438 486.671875 C 84.988281 447.046875 76.59375 405.085938 76.59375 361.746094 C 76.59375 324.597656 82.785156 288.414062 95.167969 253.882812 C 97.230469 255.945312 99.160156 258.011719 100.257812 260.625 C 103.011719 266.953125 100.808594 274.105469 100.671875 280.984375 C 100.398438 295.15625 109.476562 307.816406 118.96875 318.269531 C 130.113281 330.652344 140.707031 342.074219 146.074219 358.308594 C 147.863281 363.808594 149.925781 370.550781 155.566406 372.066406 C 158.59375 372.890625 162.171875 371.929688 165.058594 373.304688 C 167.125 374.40625 168.363281 376.46875 169.738281 378.394531 C 180.46875 393.117188 203.582031 396.554688 220.367188 398.757812 C 226.421875 399.582031 233.027344 400.269531 237.703125 404.257812 C 246.507812 411.6875 248.574219 423.796875 258.617188 429.300781 C 268.109375 434.527344 280.355469 441.40625 280.492188 453.652344 C 280.628906 460.394531 278.152344 466.996094 276.777344 473.601562 C 271.960938 496.578125 281.316406 521.753906 299.890625 536.0625 C 303.742188 539.089844 308.144531 541.703125 311.035156 545.554688 C 315.851562 552.023438 316.125 560.828125 315.988281 568.945312 Z M 676.316406 231.730469 C 675.902344 233.109375 675.902344 234.621094 674.800781 235.445312 C 673.703125 236.273438 672.050781 235.722656 670.8125 235.171875 C 662.832031 231.59375 654.851562 228.015625 646.875 224.300781 C 644.671875 223.339844 642.195312 222.101562 641.230469 219.761719 C 639.992188 216.460938 642.46875 212.609375 641.230469 209.304688 C 639.855469 205.730469 634.902344 205.179688 631.050781 205.730469 C 616.054688 208.066406 601.609375 217.699219 587.023438 213.984375 C 584.410156 213.296875 581.933594 212.332031 579.320312 212.195312 C 568.726562 211.917969 564.875 225.679688 557.996094 233.796875 C 554.144531 238.335938 548.640625 241.363281 544.238281 245.351562 C 527.039062 260.484375 526.074219 288.554688 537.21875 308.640625 C 542.585938 318.410156 550.839844 328.453125 548.640625 339.457031 C 548.089844 342.621094 546.574219 346.0625 548.226562 348.8125 C 549.191406 350.328125 550.839844 351.289062 552.355469 352.117188 C 560.058594 356.105469 569.964844 359.546875 577.117188 354.453125 C 580.421875 352.117188 582.898438 347.988281 586.886719 347.164062 C 591.289062 346.335938 595.554688 349.640625 599.957031 348.8125 C 604.359375 347.988281 607.25 343.3125 611.652344 342.621094 C 616.054688 341.933594 619.90625 345.375 623.621094 348.125 C 627.199219 350.738281 632.976562 352.390625 635.730469 348.8125 C 633.253906 360.371094 631.050781 373.578125 637.65625 383.347656 C 641.921875 389.8125 649.625 394.214844 651.550781 401.644531 C 653.613281 409.761719 647.972656 417.878906 648.660156 426.136719 C 648.9375 429.300781 650.039062 432.464844 649.074219 435.492188 C 647.835938 438.929688 643.984375 440.71875 642.46875 444.019531 C 639.03125 451.175781 647.972656 457.777344 651.824219 464.796875 C 655.679688 471.8125 654.300781 480.34375 654.851562 488.324219 C 655.679688 502.21875 663.246094 515.839844 675.214844 522.71875 C 661.320312 546.65625 644.398438 568.671875 624.445312 588.621094 C 595.003906 618.0625 560.609375 641.3125 522.359375 657.410156 C 482.738281 674.195312 440.773438 682.589844 397.4375 682.589844 C 375.011719 682.589844 352.996094 680.25 331.535156 675.847656 C 333.597656 671.167969 339.925781 668.691406 343.230469 664.425781 C 347.082031 659.613281 347.21875 652.734375 351.070312 648.054688 C 355.613281 642.414062 364.28125 641.175781 367.855469 634.847656 C 369.644531 631.820312 369.78125 627.832031 372.121094 625.214844 C 375.011719 622.191406 379.6875 622.050781 383.265625 619.851562 C 393.171875 613.796875 387.945312 597.976562 393.035156 587.65625 C 399.226562 575.136719 417.660156 575.136719 427.566406 565.230469 C 437.609375 555.324219 436.234375 539.089844 441.050781 525.882812 C 444.902344 515.425781 453.019531 506.621094 463.199219 502.082031 C 458.523438 490.9375 445.867188 485.847656 434.308594 482.820312 C 433.757812 482.679688 433.070312 482.542969 432.519531 482.40625 C 421.375 479.65625 409.542969 477.039062 401.839844 468.648438 C 395.234375 461.492188 392.347656 450.625 383.816406 445.671875 C 378.3125 442.507812 371.160156 442.371094 365.792969 438.929688 C 360.566406 435.492188 357.675781 429.160156 352.585938 425.585938 C 348.871094 422.972656 344.328125 421.871094 339.925781 420.90625 C 332.910156 419.394531 325.894531 417.742188 318.738281 416.230469 C 314.199219 415.265625 309.382812 414.304688 305.117188 416.089844 C 300.304688 418.292969 297.691406 423.660156 293.5625 426.824219 C 285.582031 433.015625 272.097656 429.160156 268.660156 419.667969 C 267.558594 416.78125 267.421875 413.613281 266.320312 410.726562 C 263.570312 403.570312 254.625 399.582031 247.472656 402.058594 C 244.03125 394.628906 255.3125 384.859375 248.574219 378.808594 C 245.410156 375.917969 240.59375 376.054688 237.429688 378.808594 C 230.410156 384.859375 219.679688 392.152344 213.351562 380.59375 C 212.25 378.53125 211.5625 376.332031 211.152344 373.992188 C 210.1875 367.9375 209.914062 361.746094 210.601562 355.554688 C 210.875 352.527344 211.425781 349.5 213.078125 347.027344 C 217.753906 339.457031 228.761719 339.871094 236.464844 338.21875 C 242.519531 336.980469 255.039062 332.855469 260.679688 337.121094 C 266.183594 341.246094 268.933594 352.941406 273.199219 358.582031 C 274.300781 359.957031 275.539062 361.472656 277.328125 361.609375 C 286.40625 362.296875 280.765625 344.410156 279.527344 340.972656 C 270.859375 318.132812 297.277344 321.710938 300.027344 304.101562 C 300.304688 302.171875 300.027344 300.246094 300.578125 298.457031 C 302.78125 290.617188 315.300781 290.753906 319.152344 283.460938 C 321.214844 279.609375 322.179688 272.867188 326.445312 273.96875 C 333.1875 275.757812 345.292969 270.253906 348.871094 263.238281 C 352.859375 255.257812 358.5 247.964844 366.066406 243.152344 C 366.34375 243.011719 366.617188 242.875 366.757812 242.601562 C 374.324219 237.234375 378.039062 227.191406 372.671875 218.9375 C 361.941406 202.5625 332.359375 202.425781 316.675781 191.96875 C 311.859375 188.804688 306.355469 185.917969 300.714844 186.605469 C 293.835938 187.429688 288.472656 193.757812 286.820312 200.363281 C 283.929688 211.507812 293.148438 227.054688 286.269531 236.820312 C 285.308594 238.335938 283.792969 239.4375 282.144531 239.988281 C 276.363281 241.773438 274.300781 234.484375 271.824219 231.042969 C 268.382812 226.367188 264.394531 222.511719 259.441406 219.488281 C 250.636719 215.632812 238.804688 221.824219 232.75 212.195312 C 230.410156 208.480469 230.136719 203.664062 231.925781 199.675781 C 235.226562 192.382812 242.65625 191.832031 248.710938 189.082031 C 257.242188 185.230469 263.570312 176.835938 264.808594 167.480469 C 264.945312 165.96875 265.082031 164.453125 264.53125 163.078125 C 263.84375 161.425781 262.46875 160.328125 260.957031 159.363281 C 235.640625 142.441406 204.683594 155.097656 177.441406 157.300781 C 168.363281 157.988281 159.144531 157.851562 150.0625 157.023438 C 156.53125 149.183594 163.410156 141.617188 170.703125 134.324219 C 200.144531 104.882812 234.539062 81.628906 272.789062 65.53125 C 312.410156 48.746094 354.375 40.355469 397.710938 40.355469 C 441.050781 40.355469 483.148438 48.886719 522.636719 65.53125 C 542.722656 74.0625 561.710938 84.519531 579.457031 96.761719 C 577.808594 97.863281 576.15625 99.101562 574.503906 100.753906 C 566.523438 108.320312 559.09375 115.476562 547.402344 115.886719 C 547.402344 115.886719 547.261719 115.886719 547.261719 115.886719 C 542.585938 116.164062 540.246094 121.390625 543 125.105469 C 543.410156 125.65625 543.824219 126.207031 544.097656 126.894531 C 548.089844 134.046875 544.511719 142.578125 535.84375 142.578125 C 531.992188 142.578125 528.277344 141.066406 524.699219 140.101562 C 502.960938 134.046875 505.714844 164.316406 516.171875 174.085938 C 522.773438 180.277344 532.128906 179.589844 539.144531 174.496094 C 544.925781 170.371094 548.777344 164.179688 552.90625 158.539062 C 557.859375 151.933594 563.910156 144.917969 572.855469 144.917969 C 579.183594 144.917969 585.097656 148.769531 591.566406 149.320312 C 604.222656 150.28125 609.175781 156.199219 617.019531 165.28125 C 617.980469 166.378906 618.945312 167.480469 618.945312 168.855469 C 619.082031 172.984375 611.375 175.324219 613.304688 178.898438 C 621.558594 179.175781 629.8125 175.183594 634.902344 168.71875 C 629.539062 159.226562 621.421875 151.246094 611.789062 146.15625 C 609.039062 144.640625 607.386719 141.617188 607.9375 138.449219 C 608.902344 133.636719 613.714844 130.332031 618.667969 128.820312 C 620.59375 130.609375 622.519531 132.535156 624.445312 134.460938 C 632.289062 142.304688 639.582031 150.421875 646.597656 158.949219 C 648.523438 170.371094 651.550781 182.339844 664.484375 183.300781 C 664.484375 183.164062 664.484375 183.164062 664.484375 183.027344 C 673.703125 196.648438 681.679688 211.09375 688.699219 226.089844 C 688.421875 225.953125 688.011719 225.953125 687.734375 225.816406 C 683.058594 225.539062 677.554688 227.328125 676.316406 231.730469 Z M 676.316406 231.730469 "/></g></g></svg>