<svg xmlns="http://www.w3.org/2000/svg" xmlns:xlink="http://www.w3.org/1999/xlink" width="1060" zoomAndPan="magnify" viewBox="0 0 794.88 723.75" height="965" preserveAspectRatio="xMidYMid meet" version="1.2"><defs><clipPath id="d371e30403"><path d="M 1 82.875 L 794 82.875 L 794 640.679688 L 1 640.679688 Z M 1 82.875 "/></clipPath></defs><g id="db10fb9799"><g clip-rule="nonzero" clip-path="url(#d371e30403)"><path style=" stroke:none;fill-rule:nonzero;fill:#ed1d24;fill-opacity:1;" d="M 776.699219 169.988281 C 767.59375 135.703125 740.773438 108.703125 706.710938 99.539062 C 644.980469 82.886719 397.429688 82.886719 397.429688 82.886719 C 397.429688 82.886719 149.882812 82.886719 88.148438 99.539062 C 54.085938 108.703125 27.261719 135.703125 18.160156 169.988281 C 1.617188 232.128906 1.617188 361.785156 1.617188 361.785156 C 1.617188 361.785156 1.617188 491.4375 18.160156 553.582031 C 27.261719 587.867188 54.085938 614.863281 88.148438 624.03125 C 149.882812 640.679688 397.429688 640.679688 397.429688 640.679688 C 397.429688 640.679688 644.980469 640.679688 706.710938 624.03125 C 740.773438 614.863281 767.59375 587.867188 776.699219 553.582031 C 793.242188 491.4375 793.242188 361.785156 793.242188 361.785156 C 793.242188 361.785156 793.242188 232.128906 776.699219 169.988281 "/></g><path style=" stroke:none;fill-rule:nonzero;fill:#ffffff;fill-opacity:1;" d="M 316.46875 479.5 L 523.371094 361.789062 L 316.46875 244.066406 Z M 316.46875 479.5 "/></g></svg>