<svg xmlns="http://www.w3.org/2000/svg" xmlns:xlink="http://www.w3.org/1999/xlink" width="1060" zoomAndPan="magnify" viewBox="0 0 794.88 723.75" height="965" preserveAspectRatio="xMidYMid meet" version="1.2"><defs><clipPath id="e24b5c6285"><path d="M 21.195312 63.105469 L 773.9375 63.105469 L 773.9375 590 L 21.195312 590 Z M 21.195312 63.105469 "/></clipPath></defs><g id="3aa3c3b6ab"><g clip-rule="nonzero" clip-path="url(#e24b5c6285)"><path style=" stroke:none;fill-rule:nonzero;fill:#0ba87d;fill-opacity:1;" d="M 671.191406 340.917969 L 671.191406 339.820312 C 671.191406 189.324219 548.050781 63.773438 397.554688 63.714844 C 246.550781 63.636719 123.683594 186.464844 123.683594 337.449219 L 123.683594 340.917969 C 65.367188 351.679688 21.195312 402.785156 21.195312 464.21875 C 21.195312 488.769531 28.644531 513.167969 42.203125 533.625 C 46.769531 540.542969 52.058594 547.027344 57.9375 552.90625 C 75.515625 570.484375 98.246094 582.832031 123.683594 587.535156 C 123.800781 587.554688 123.996094 587.574219 124.230469 587.613281 C 131.503906 588.90625 138.96875 589.628906 146.609375 589.628906 L 155.332031 589.628906 C 167.636719 589.628906 177.632812 579.65625 177.632812 567.351562 L 177.632812 337.449219 C 177.632812 216.25 276.238281 117.644531 397.4375 117.644531 C 518.636719 117.644531 617.246094 216.25 617.246094 337.449219 L 617.246094 567.351562 C 617.246094 579.65625 627.238281 589.628906 639.546875 589.628906 L 648.265625 589.628906 C 655.90625 589.628906 663.375 588.90625 670.644531 587.613281 C 670.878906 587.574219 671.074219 587.554688 671.191406 587.535156 C 696.628906 582.832031 719.359375 570.484375 736.9375 552.90625 C 739.5625 550.28125 742.070312 547.539062 744.441406 544.695312 C 757.726562 528.746094 766.976562 509.484375 771.152344 489.125 C 772.816406 480.953125 773.679688 472.585938 773.679688 464.21875 C 773.679688 402.785156 729.511719 351.679688 671.191406 340.917969 "/></g><path style=" stroke:none;fill-rule:nonzero;fill:#0ba87d;fill-opacity:1;" d="M 222.542969 426.042969 C 214.453125 426.042969 207.90625 432.589844 207.90625 440.683594 L 207.90625 505.074219 C 207.90625 513.148438 214.453125 519.710938 222.542969 519.710938 C 230.617188 519.710938 237.183594 513.148438 237.183594 505.074219 L 237.183594 440.683594 C 237.183594 432.589844 230.617188 426.042969 222.542969 426.042969 "/><path style=" stroke:none;fill-rule:nonzero;fill:#0ba87d;fill-opacity:1;" d="M 280.84375 381.089844 C 272.769531 381.089844 266.203125 387.636719 266.203125 395.730469 L 266.203125 550.027344 C 266.203125 558.101562 272.769531 564.664062 280.84375 564.664062 C 288.914062 564.664062 295.480469 558.101562 295.480469 550.027344 L 295.480469 395.730469 C 295.480469 387.636719 288.914062 381.089844 280.84375 381.089844 "/><path style=" stroke:none;fill-rule:nonzero;fill:#0ba87d;fill-opacity:1;" d="M 339.140625 338.644531 C 331.066406 338.644531 324.503906 345.191406 324.503906 353.285156 L 324.503906 592.472656 C 324.503906 600.546875 331.066406 607.109375 339.140625 607.109375 C 347.214844 607.109375 353.777344 600.546875 353.777344 592.472656 L 353.777344 353.285156 C 353.777344 345.191406 347.214844 338.644531 339.140625 338.644531 "/><path style=" stroke:none;fill-rule:nonzero;fill:#0ba87d;fill-opacity:1;" d="M 397.4375 285.953125 C 389.363281 285.953125 382.800781 292.519531 382.800781 300.589844 L 382.800781 645.144531 C 382.800781 653.238281 389.363281 659.785156 397.4375 659.785156 C 405.511719 659.785156 412.074219 653.238281 412.074219 645.144531 L 412.074219 300.589844 C 412.074219 292.519531 405.511719 285.953125 397.4375 285.953125 "/><path style=" stroke:none;fill-rule:nonzero;fill:#0ba87d;fill-opacity:1;" d="M 455.734375 338.644531 C 447.664062 338.644531 441.097656 345.191406 441.097656 353.285156 L 441.097656 592.472656 C 441.097656 600.546875 447.664062 607.109375 455.734375 607.109375 C 463.808594 607.109375 470.375 600.546875 470.375 592.472656 L 470.375 353.285156 C 470.375 345.191406 463.808594 338.644531 455.734375 338.644531 "/><path style=" stroke:none;fill-rule:nonzero;fill:#0ba87d;fill-opacity:1;" d="M 514.035156 381.089844 C 505.960938 381.089844 499.394531 387.636719 499.394531 395.730469 L 499.394531 550.027344 C 499.394531 558.101562 505.960938 564.664062 514.035156 564.664062 C 522.125 564.664062 528.671875 558.101562 528.671875 550.027344 L 528.671875 395.730469 C 528.671875 387.636719 522.125 381.089844 514.035156 381.089844 "/><path style=" stroke:none;fill-rule:nonzero;fill:#0ba87d;fill-opacity:1;" d="M 572.332031 426.042969 C 564.257812 426.042969 557.691406 432.589844 557.691406 440.683594 L 557.691406 505.074219 C 557.691406 513.148438 564.257812 519.710938 572.332031 519.710938 C 580.425781 519.710938 586.96875 513.148438 586.96875 505.074219 L 586.96875 440.683594 C 586.96875 432.589844 580.425781 426.042969 572.332031 426.042969 "/></g></svg>