<svg xmlns="http://www.w3.org/2000/svg" xmlns:xlink="http://www.w3.org/1999/xlink" width="1060" zoomAndPan="magnify" viewBox="0 0 794.88 723.75" height="965" preserveAspectRatio="xMidYMid meet" version="1.2"><defs><clipPath id="0b2395cb2d"><path d="M 323.226562 640.386719 L 472 640.386719 L 472 704.996094 L 323.226562 704.996094 Z M 323.226562 640.386719 "/></clipPath><clipPath id="e1f1205797"><path d="M 96.105469 18.503906 L 698.777344 18.503906 L 698.777344 615 L 96.105469 615 Z M 96.105469 18.503906 "/></clipPath></defs><g id="5e2c6dbcc1"><g clip-rule="nonzero" clip-path="url(#0b2395cb2d)"><path style=" stroke:none;fill-rule:nonzero;fill:#047455;fill-opacity:1;" d="M 397.445312 704.996094 C 431.332031 704.996094 460.144531 683.355469 470.851562 653.136719 C 473.007812 647.054688 468.582031 640.652344 462.125 640.652344 L 332.761719 640.652344 C 326.3125 640.652344 321.878906 647.054688 324.035156 653.136719 C 334.746094 683.355469 363.558594 704.996094 397.445312 704.996094 "/></g><g clip-rule="nonzero" clip-path="url(#e1f1205797)"><path style=" stroke:none;fill-rule:nonzero;fill:#0ba87d;fill-opacity:1;" d="M 691.433594 549.023438 L 671.773438 515.0625 C 650.679688 478.613281 639.574219 437.25 639.574219 395.136719 L 639.574219 314.820312 C 639.574219 199.152344 558.4375 102.484375 449.988281 78.476562 L 449.988281 71.050781 C 449.988281 42.03125 426.464844 18.507812 397.445312 18.507812 C 368.425781 18.507812 344.902344 42.03125 344.902344 71.050781 L 344.902344 78.476562 C 236.453125 102.484375 155.316406 199.152344 155.316406 314.820312 L 155.316406 395.136719 C 155.316406 437.25 144.207031 478.613281 123.113281 515.0625 L 103.457031 549.023438 C 84.496094 576.835938 104.410156 614.519531 138.070312 614.519531 L 656.820312 614.519531 C 690.476562 614.519531 710.394531 576.835938 691.433594 549.023438 "/></g><path style=" stroke:none;fill-rule:nonzero;fill:#737373;fill-opacity:1;" d="M 682.230469 153.484375 C 682.230469 216.695312 630.988281 267.941406 567.777344 267.941406 C 504.5625 267.941406 453.320312 216.695312 453.320312 153.484375 C 453.320312 90.273438 504.5625 39.03125 567.777344 39.03125 C 630.988281 39.03125 682.230469 90.273438 682.230469 153.484375 "/><path style=" stroke:none;fill-rule:nonzero;fill:#ffffff;fill-opacity:1;" d="M 585.433594 92.175781 L 585.433594 214.800781 L 554.832031 214.800781 L 554.832031 149.058594 C 554.832031 139.566406 554.605469 133.855469 554.152344 131.9375 C 553.695312 130.019531 552.445312 128.566406 550.402344 127.582031 C 548.355469 126.597656 543.796875 126.105469 536.730469 126.105469 L 533.699219 126.105469 L 533.699219 111.808594 C 548.496094 108.628906 559.730469 102.082031 567.40625 92.175781 L 585.433594 92.175781 "/></g></svg>