<svg xmlns="http://www.w3.org/2000/svg" xmlns:xlink="http://www.w3.org/1999/xlink" width="1060" zoomAndPan="magnify" viewBox="0 0 794.88 723.75" height="965" preserveAspectRatio="xMidYMid meet" version="1.2"><defs><clipPath id="2b2e9f519b"><path d="M 36.253906 529 L 182 529 L 182 673.855469 L 36.253906 673.855469 Z M 36.253906 529 "/></clipPath></defs><g id="1840f5c8d1"><g clip-rule="nonzero" clip-path="url(#2b2e9f519b)"><path style=" stroke:none;fill-rule:nonzero;fill:#0ba87d;fill-opacity:1;" d="M 179.683594 607.28125 L 164.859375 597.621094 L 163.289062 587.75 L 174.40625 573.984375 C 175.199219 573 175.296875 571.621094 174.632812 570.523438 L 166.238281 556.816406 C 165.578125 555.738281 164.289062 555.191406 163.0625 555.453125 L 145.761719 559.105469 L 137.6875 553.222656 L 135.816406 535.640625 C 135.683594 534.371094 134.757812 533.332031 133.527344 533.03125 L 117.910156 529.285156 C 116.679688 528.984375 115.375 529.492188 114.695312 530.570312 L 105.03125 545.394531 L 95.164062 546.964844 L 81.398438 535.847656 C 80.414062 535.050781 79.035156 534.957031 77.9375 535.621094 L 64.230469 544.015625 C 63.152344 544.675781 62.601562 545.945312 62.867188 547.191406 L 66.515625 564.492188 L 60.636719 572.566406 L 43.050781 574.4375 C 41.785156 574.570312 40.746094 575.496094 40.441406 576.726562 L 36.699219 592.34375 C 36.394531 593.574219 36.90625 594.878906 37.984375 595.558594 L 52.808594 605.21875 L 54.378906 615.089844 L 43.261719 628.855469 C 42.464844 629.839844 42.371094 631.21875 43.03125 632.316406 L 51.429688 646.023438 C 52.089844 647.101562 53.355469 647.648438 54.605469 647.386719 L 71.90625 643.734375 L 79.980469 649.617188 L 81.851562 667.203125 C 81.984375 668.46875 82.910156 669.507812 84.140625 669.8125 L 99.777344 673.554688 C 101.003906 673.855469 102.308594 673.347656 102.992188 672.269531 L 112.652344 657.445312 L 122.523438 655.875 L 136.289062 666.992188 C 136.96875 667.542969 137.820312 667.75 138.652344 667.617188 C 139.03125 667.558594 139.40625 667.429688 139.746094 667.21875 L 153.457031 658.824219 C 154.535156 658.164062 155.082031 656.894531 154.816406 655.648438 L 151.167969 638.347656 L 157.046875 630.273438 L 174.632812 628.402344 C 175.898438 628.269531 176.941406 627.34375 177.242188 626.113281 L 180.988281 610.496094 C 181.25 609.265625 180.742188 607.980469 179.683594 607.28125 Z M 112.40625 624.015625 C 99.925781 625.980469 88.222656 617.472656 86.257812 605.011719 C 84.289062 592.535156 92.800781 580.828125 105.257812 578.863281 C 117.738281 576.894531 129.441406 585.40625 131.410156 597.867188 C 133.375 610.324219 124.867188 622.046875 112.40625 624.015625 Z M 112.40625 624.015625 "/></g><path style=" stroke:none;fill-rule:nonzero;fill:#0ba87d;fill-opacity:1;" d="M 756.09375 332.605469 L 736.996094 320.164062 L 734.992188 307.4375 L 749.324219 289.703125 C 750.347656 288.433594 750.480469 286.636719 749.609375 285.238281 L 738.792969 267.578125 C 737.941406 266.179688 736.296875 265.480469 734.691406 265.820312 L 712.378906 270.527344 L 701.960938 262.964844 L 699.558594 240.292969 C 699.390625 238.667969 698.199219 237.324219 696.609375 236.949219 L 676.472656 232.105469 C 674.882812 231.730469 673.222656 232.390625 672.332031 233.753906 L 659.890625 252.847656 L 647.164062 254.855469 L 629.429688 240.519531 C 628.164062 239.5 626.367188 239.367188 624.96875 240.238281 L 607.308594 251.054688 C 605.90625 251.902344 605.207031 253.550781 605.546875 255.15625 L 610.257812 277.46875 L 602.695312 287.886719 L 580.023438 290.289062 C 578.398438 290.457031 577.054688 291.648438 576.675781 293.238281 L 571.835938 313.375 C 571.457031 314.960938 572.121094 316.625 573.480469 317.515625 L 592.578125 329.957031 L 594.582031 342.683594 L 580.230469 360.4375 C 579.210938 361.703125 579.078125 363.5 579.945312 364.898438 L 590.761719 382.558594 C 591.613281 383.957031 593.257812 384.65625 594.867188 384.316406 L 617.175781 379.609375 L 627.59375 387.171875 L 629.996094 409.84375 C 630.167969 411.46875 631.359375 412.8125 632.945312 413.191406 L 653.082031 418.03125 C 654.671875 418.410156 656.335938 417.746094 657.222656 416.386719 L 669.667969 397.289062 L 682.390625 395.285156 L 700.128906 409.617188 C 700.996094 410.316406 702.113281 410.597656 703.171875 410.429688 C 703.664062 410.355469 704.136719 410.183594 704.589844 409.898438 L 722.25 399.085938 C 723.648438 398.234375 724.347656 396.589844 724.007812 394.980469 L 719.300781 372.671875 L 726.863281 362.25 L 749.535156 359.851562 C 751.160156 359.679688 752.503906 358.488281 752.878906 356.902344 L 757.722656 336.761719 C 758.117188 335.15625 757.457031 333.492188 756.09375 332.605469 Z M 669.363281 354.179688 C 653.292969 356.730469 638.203125 345.746094 635.648438 329.671875 C 633.097656 313.601562 644.082031 298.511719 660.15625 295.960938 C 676.226562 293.40625 691.316406 304.394531 693.867188 320.464844 C 696.421875 336.535156 685.453125 351.644531 669.363281 354.179688 Z M 669.363281 354.179688 "/><path style=" stroke:none;fill-rule:nonzero;fill:#0ba87d;fill-opacity:1;" d="M 264.429688 397.441406 C 260.929688 397.441406 258.09375 400.277344 258.09375 403.773438 L 258.09375 587.84375 C 258.09375 591.34375 260.929688 594.179688 264.429688 594.179688 L 349.515625 594.179688 C 353.011719 594.179688 355.847656 591.34375 355.847656 587.84375 L 355.847656 403.773438 C 355.847656 400.277344 353.011719 397.441406 349.515625 397.441406 Z M 264.429688 397.441406 "/><path style=" stroke:none;fill-rule:nonzero;fill:#0ba87d;fill-opacity:1;" d="M 391.375 325.078125 C 387.878906 325.078125 385.042969 327.914062 385.042969 331.414062 L 385.042969 587.84375 C 385.042969 591.34375 387.878906 594.179688 391.375 594.179688 L 476.464844 594.179688 C 479.960938 594.179688 482.796875 591.34375 482.796875 587.84375 L 482.796875 331.414062 C 482.796875 327.914062 479.960938 325.078125 476.464844 325.078125 Z M 391.375 325.078125 "/><path style=" stroke:none;fill-rule:nonzero;fill:#0ba87d;fill-opacity:1;" d="M 177.148438 380.894531 C 198.175781 377.660156 219.085938 372.933594 239.640625 366.75 C 260.191406 360.570312 280.425781 352.910156 300.089844 343.835938 C 319.753906 334.757812 338.886719 324.265625 357.265625 312.449219 C 394.023438 288.8125 427.792969 259.828125 457.140625 226.398438 C 471.8125 209.683594 485.386719 191.890625 497.695312 173.132812 C 503.859375 163.753906 509.683594 154.148438 515.207031 144.335938 C 515.621094 143.617188 516.019531 142.898438 516.414062 142.179688 L 538.066406 153.015625 C 542.226562 155.09375 546.953125 151.539062 546.140625 146.984375 L 529.765625 55.070312 C 529.101562 51.347656 525.039062 49.324219 521.671875 51.023438 L 438.324219 93.113281 C 434.183594 95.210938 434.203125 101.128906 438.34375 103.191406 L 460.5625 114.289062 C 460.164062 115.3125 459.765625 116.351562 459.351562 117.371094 C 455.703125 126.503906 451.730469 135.523438 447.4375 144.410156 C 438.855469 162.203125 428.984375 179.46875 417.90625 196.050781 C 395.746094 229.195312 368.707031 259.5625 337.660156 285.824219 C 322.152344 298.964844 305.648438 311.066406 288.308594 322.015625 C 270.949219 332.964844 252.761719 342.738281 233.890625 351.246094 C 215.019531 359.753906 195.449219 366.980469 175.390625 372.820312 C 165.347656 375.75 155.195312 378.324219 144.949219 380.554688 C 134.699219 382.785156 124.335938 384.640625 113.902344 386.171875 C 124.433594 386.019531 135.003906 385.527344 145.550781 384.640625 C 156.085938 383.769531 166.636719 382.519531 177.148438 380.894531 Z M 177.148438 380.894531 "/><path style=" stroke:none;fill-rule:nonzero;fill:#0ba87d;fill-opacity:1;" d="M 594.070312 401.410156 C 590.535156 401.410156 587.019531 400.503906 583.9375 398.78125 C 580.796875 397.042969 578.132812 394.488281 576.261719 391.425781 L 565.445312 373.765625 C 560.832031 366.242188 561.472656 356.578125 567.015625 349.734375 L 575.542969 339.183594 L 564.179688 331.789062 C 556.785156 326.96875 553.210938 317.988281 555.273438 309.402344 L 560.113281 289.265625 C 562.171875 280.683594 569.453125 274.292969 578.226562 273.363281 L 591.6875 271.925781 L 588.890625 258.652344 C 587.074219 250.03125 590.894531 241.125 598.421875 236.53125 L 605.378906 232.257812 C 604.773438 232.070312 604.113281 231.957031 603.449219 231.957031 L 518.363281 231.957031 C 514.867188 231.957031 512.027344 234.792969 512.027344 238.289062 L 512.027344 587.804688 C 512.027344 591.304688 514.867188 594.140625 518.363281 594.140625 L 603.449219 594.140625 C 606.949219 594.140625 609.785156 591.304688 609.785156 587.804688 L 609.785156 398.535156 L 598.382812 400.9375 C 596.945312 401.277344 595.507812 401.410156 594.070312 401.410156 Z M 594.070312 401.410156 "/><path style=" stroke:none;fill-rule:nonzero;fill:#0ba87d;fill-opacity:1;" d="M 228.898438 587.84375 L 228.898438 465.453125 C 228.898438 461.953125 226.0625 459.117188 222.566406 459.117188 L 137.480469 459.117188 C 133.980469 459.117188 131.144531 461.953125 131.144531 465.453125 L 131.144531 514.992188 L 137.496094 516.523438 C 145.722656 518.488281 151.832031 525.464844 152.738281 533.878906 L 153.398438 540.140625 L 159.542969 538.835938 C 160.90625 538.550781 162.285156 538.398438 163.683594 538.398438 C 170.605469 538.398438 177.148438 542.066406 180.757812 547.96875 L 189.15625 561.675781 C 193.578125 568.878906 192.972656 578.144531 187.660156 584.722656 L 183.710938 589.621094 L 188.984375 593.0625 C 189.53125 593.421875 190.0625 593.800781 190.574219 594.214844 L 222.585938 594.214844 C 226.0625 594.179688 228.898438 591.34375 228.898438 587.84375 Z M 228.898438 587.84375 "/><path style=" stroke:none;fill-rule:nonzero;fill:#0ba87d;fill-opacity:1;" d="M 191.082031 614.84375 L 609.765625 614.84375 L 609.765625 633.753906 L 191.082031 633.753906 Z M 191.082031 614.84375 "/></g></svg>