<svg xmlns="http://www.w3.org/2000/svg" xmlns:xlink="http://www.w3.org/1999/xlink" width="1060" zoomAndPan="magnify" viewBox="0 0 794.88 723.75" height="965" preserveAspectRatio="xMidYMid meet" version="1.2"><g id="2023597be7"><path style=" stroke:none;fill-rule:nonzero;fill:#0ba77c;fill-opacity:1;" d="M 623.949219 153.414062 L 488.722656 18.042969 C 487.875 17.179688 486.921875 16.457031 485.859375 15.875 C 484.796875 15.296875 483.671875 14.882812 482.484375 14.640625 C 481.300781 14.394531 480.105469 14.328125 478.898438 14.441406 C 477.695312 14.554688 476.53125 14.839844 475.410156 15.296875 C 474.289062 15.757812 473.261719 16.371094 472.324219 17.136719 C 471.386719 17.902344 470.582031 18.789062 469.90625 19.792969 C 469.234375 20.800781 468.722656 21.882812 468.371094 23.039062 C 468.023438 24.199219 467.847656 25.382812 467.851562 26.59375 L 467.851562 39.347656 C 467.851562 40.148438 467.773438 40.941406 467.617188 41.722656 C 467.460938 42.507812 467.230469 43.269531 466.925781 44.007812 C 466.617188 44.746094 466.242188 45.449219 465.800781 46.113281 C 465.355469 46.777344 464.851562 47.394531 464.285156 47.957031 C 463.71875 48.523438 463.105469 49.027344 462.441406 49.472656 C 461.777344 49.917969 461.074219 50.292969 460.335938 50.597656 C 459.597656 50.902344 458.835938 51.132812 458.050781 51.289062 C 457.269531 51.445312 456.476562 51.523438 455.675781 51.523438 L 391.324219 51.523438 C 248.417969 51.523438 123.480469 156.75 108.117188 298.933594 C 106.183594 316.867188 106 334.820312 107.558594 352.792969 C 109.121094 370.765625 112.398438 388.417969 117.394531 405.75 C 117.722656 406.867188 118.132812 407.957031 118.621094 409.011719 C 119.113281 410.070312 119.675781 411.085938 120.316406 412.058594 C 120.957031 413.03125 121.664062 413.953125 122.441406 414.820312 C 123.21875 415.691406 124.054688 416.496094 124.949219 417.242188 C 125.847656 417.988281 126.792969 418.660156 127.789062 419.265625 C 128.785156 419.871094 129.816406 420.402344 130.890625 420.851562 C 131.964844 421.304688 133.066406 421.675781 134.195312 421.964844 C 135.324219 422.253906 136.46875 422.457031 137.628906 422.578125 C 138.785156 422.695312 139.949219 422.730469 141.109375 422.679688 C 142.273438 422.625 143.429688 422.488281 144.574219 422.265625 C 145.714844 422.042969 146.835938 421.738281 147.933594 421.347656 C 149.035156 420.960938 150.097656 420.492188 151.125 419.945312 C 152.15625 419.402344 153.140625 418.78125 154.078125 418.089844 C 155.015625 417.398438 155.894531 416.644531 156.722656 415.820312 C 157.546875 415 158.308594 414.121094 159.003906 413.1875 C 159.699219 412.25 160.324219 411.269531 160.875 410.246094 C 163.746094 405.335938 166.765625 400.523438 169.933594 395.800781 C 173.101562 391.078125 176.410156 386.457031 179.859375 381.9375 C 183.3125 377.417969 186.898438 373.011719 190.621094 368.710938 C 194.34375 364.414062 198.195312 360.234375 202.171875 356.171875 C 206.152344 352.109375 210.25 348.175781 214.472656 344.363281 C 218.691406 340.554688 223.027344 336.878906 227.472656 333.332031 C 231.917969 329.789062 236.46875 326.386719 241.125 323.121094 C 245.78125 319.855469 250.535156 316.738281 255.378906 313.765625 C 260.226562 310.792969 265.160156 307.972656 270.183594 305.304688 C 275.203125 302.632812 280.300781 300.121094 285.476562 297.765625 C 290.648438 295.40625 295.890625 293.210938 301.203125 291.179688 C 306.511719 289.144531 311.878906 287.273438 317.304688 285.570312 C 322.726562 283.867188 328.199219 282.328125 333.71875 280.960938 C 339.238281 279.59375 344.792969 278.394531 350.386719 277.367188 C 355.976562 276.339844 361.597656 275.484375 367.242188 274.804688 C 372.886719 274.121094 378.546875 273.613281 384.222656 273.277344 L 455.675781 274.4375 C 456.476562 274.4375 457.269531 274.515625 458.050781 274.671875 C 458.835938 274.828125 459.597656 275.058594 460.335938 275.363281 C 461.074219 275.671875 461.777344 276.046875 462.441406 276.488281 C 463.105469 276.933594 463.71875 277.4375 464.285156 278.003906 C 464.851562 278.570312 465.355469 279.183594 465.800781 279.847656 C 466.242188 280.511719 466.617188 281.214844 466.925781 281.953125 C 467.230469 282.691406 467.460938 283.453125 467.617188 284.238281 C 467.773438 285.019531 467.851562 285.8125 467.851562 286.613281 L 467.851562 297.339844 C 467.847656 298.546875 468.023438 299.734375 468.371094 300.890625 C 468.722656 302.050781 469.234375 303.132812 469.90625 304.140625 C 470.582031 305.144531 471.386719 306.03125 472.324219 306.796875 C 473.261719 307.5625 474.289062 308.175781 475.410156 308.632812 C 476.53125 309.09375 477.695312 309.378906 478.898438 309.492188 C 480.105469 309.601562 481.300781 309.535156 482.484375 309.292969 C 483.671875 309.046875 484.796875 308.636719 485.859375 308.054688 C 486.921875 307.476562 487.875 306.753906 488.722656 305.890625 L 623.949219 170.515625 C 624.515625 169.957031 625.019531 169.347656 625.464844 168.6875 C 625.910156 168.03125 626.285156 167.332031 626.589844 166.597656 C 626.898438 165.867188 627.128906 165.109375 627.285156 164.328125 C 627.441406 163.550781 627.519531 162.761719 627.519531 161.964844 C 627.519531 161.171875 627.441406 160.382812 627.285156 159.605469 C 627.128906 158.824219 626.898438 158.066406 626.589844 157.332031 C 626.285156 156.597656 625.910156 155.902344 625.464844 155.242188 C 625.019531 154.582031 624.515625 153.972656 623.949219 153.414062 Z M 623.949219 153.414062 "/><path style=" stroke:none;fill-rule:nonzero;fill:#a6a6a6;fill-opacity:1;" d="M 170.585938 571.125 L 305.8125 706.496094 C 306.660156 707.359375 307.613281 708.082031 308.675781 708.664062 C 309.738281 709.242188 310.863281 709.65625 312.050781 709.898438 C 313.234375 710.144531 314.429688 710.210938 315.636719 710.097656 C 316.839844 709.988281 318.003906 709.699219 319.125 709.242188 C 320.242188 708.78125 321.273438 708.171875 322.210938 707.40625 C 323.148438 706.640625 323.953125 705.753906 324.625 704.746094 C 325.300781 703.742188 325.8125 702.65625 326.160156 701.5 C 326.511719 700.339844 326.6875 699.15625 326.683594 697.945312 L 326.683594 685.191406 C 326.683594 684.390625 326.761719 683.601562 326.917969 682.816406 C 327.074219 682.03125 327.304688 681.269531 327.609375 680.53125 C 327.914062 679.792969 328.289062 679.089844 328.734375 678.425781 C 329.179688 677.761719 329.683594 677.148438 330.25 676.582031 C 330.8125 676.015625 331.429688 675.511719 332.09375 675.066406 C 332.757812 674.625 333.460938 674.25 334.199219 673.941406 C 334.9375 673.636719 335.699219 673.40625 336.480469 673.25 C 337.265625 673.09375 338.058594 673.015625 338.859375 673.015625 L 403.210938 673.015625 C 546.117188 673.015625 671.054688 567.792969 686.417969 425.609375 C 688.351562 407.671875 688.535156 389.71875 686.976562 371.746094 C 685.414062 353.773438 682.136719 336.121094 677.140625 318.789062 C 676.8125 317.671875 676.402344 316.582031 675.914062 315.527344 C 675.421875 314.46875 674.859375 313.453125 674.21875 312.480469 C 673.578125 311.507812 672.871094 310.585938 672.09375 309.71875 C 671.316406 308.847656 670.480469 308.042969 669.585938 307.296875 C 668.6875 306.554688 667.742188 305.878906 666.746094 305.273438 C 665.75 304.667969 664.714844 304.140625 663.644531 303.6875 C 662.570312 303.234375 661.46875 302.867188 660.339844 302.578125 C 659.210938 302.289062 658.066406 302.082031 656.90625 301.964844 C 655.75 301.84375 654.585938 301.808594 653.421875 301.863281 C 652.257812 301.914062 651.105469 302.050781 649.960938 302.273438 C 648.820312 302.496094 647.699219 302.800781 646.597656 303.191406 C 645.5 303.578125 644.4375 304.046875 643.40625 304.59375 C 642.378906 305.140625 641.394531 305.757812 640.457031 306.449219 C 639.519531 307.140625 638.636719 307.898438 637.8125 308.71875 C 636.988281 309.542969 636.226562 310.417969 635.53125 311.355469 C 634.835938 312.289062 634.210938 313.269531 633.660156 314.296875 C 630.789062 319.203125 627.769531 324.019531 624.601562 328.738281 C 621.433594 333.460938 618.125 338.082031 614.671875 342.601562 C 611.222656 347.121094 607.636719 351.527344 603.914062 355.828125 C 600.191406 360.125 596.339844 364.304688 592.363281 368.367188 C 588.382812 372.429688 584.28125 376.367188 580.0625 380.175781 C 575.839844 383.984375 571.507812 387.664062 567.0625 391.207031 C 562.613281 394.75 558.0625 398.15625 553.410156 401.417969 C 548.753906 404.683594 544 407.800781 539.152344 410.773438 C 534.308594 413.746094 529.371094 416.566406 524.351562 419.238281 C 519.332031 421.90625 514.234375 424.417969 509.058594 426.777344 C 503.882812 429.132812 498.640625 431.328125 493.332031 433.363281 C 488.023438 435.394531 482.65625 437.265625 477.230469 438.96875 C 471.808594 440.675781 466.335938 442.210938 460.816406 443.578125 C 455.296875 444.949219 449.742188 446.144531 444.148438 447.171875 C 438.558594 448.199219 432.9375 449.054688 427.292969 449.738281 C 421.648438 450.417969 415.988281 450.925781 410.3125 451.261719 L 339.292969 450.101562 C 338.492188 450.101562 337.699219 450.023438 336.917969 449.867188 C 336.132812 449.710938 335.371094 449.480469 334.632812 449.175781 C 333.894531 448.871094 333.191406 448.496094 332.527344 448.050781 C 331.863281 447.605469 331.25 447.101562 330.683594 446.535156 C 330.117188 445.972656 329.613281 445.355469 329.167969 444.691406 C 328.726562 444.027344 328.351562 443.324219 328.042969 442.585938 C 327.738281 441.847656 327.507812 441.085938 327.351562 440.300781 C 327.195312 439.519531 327.117188 438.726562 327.117188 437.925781 L 327.117188 427.203125 C 327.121094 425.992188 326.945312 424.808594 326.597656 423.648438 C 326.246094 422.488281 325.734375 421.40625 325.0625 420.402344 C 324.386719 419.394531 323.582031 418.507812 322.644531 417.742188 C 321.707031 416.976562 320.679688 416.363281 319.558594 415.90625 C 318.4375 415.445312 317.277344 415.160156 316.070312 415.046875 C 314.863281 414.9375 313.667969 415.003906 312.484375 415.246094 C 311.296875 415.492188 310.175781 415.902344 309.113281 416.484375 C 308.046875 417.0625 307.09375 417.785156 306.246094 418.652344 L 171.019531 554.023438 C 170.441406 554.566406 169.917969 555.164062 169.457031 555.8125 C 168.996094 556.460938 168.601562 557.148438 168.277344 557.871094 C 167.953125 558.597656 167.703125 559.351562 167.527344 560.125 C 167.351562 560.902344 167.253906 561.6875 167.230469 562.484375 C 167.210938 563.277344 167.269531 564.066406 167.40625 564.851562 C 167.542969 565.636719 167.753906 566.398438 168.042969 567.140625 C 168.332031 567.882812 168.6875 568.585938 169.117188 569.257812 C 169.542969 569.929688 170.035156 570.550781 170.585938 571.125 Z M 170.585938 571.125 "/></g></svg>