<svg xmlns="http://www.w3.org/2000/svg" xmlns:xlink="http://www.w3.org/1999/xlink" width="1060" zoomAndPan="magnify" viewBox="0 0 794.88 723.75" height="965" preserveAspectRatio="xMidYMid meet" version="1.2"><defs><clipPath id="7f2b528603"><path d="M 54.339844 18.648438 L 740.351562 18.648438 L 740.351562 704.664062 L 54.339844 704.664062 Z M 54.339844 18.648438 "/></clipPath></defs><g id="6fd8af1ce4"><g clip-rule="nonzero" clip-path="url(#7f2b528603)"><path style=" stroke:none;fill-rule:nonzero;fill:#ffffff;fill-opacity:1;" d="M 54.339844 361.65625 C 54.339844 172.25 207.9375 18.648438 397.347656 18.648438 C 586.753906 18.648438 740.351562 172.25 740.351562 361.65625 C 740.351562 551.0625 586.753906 704.664062 397.347656 704.664062 C 207.9375 704.664062 54.339844 551.0625 54.339844 361.65625 "/></g><path style=" stroke:none;fill-rule:nonzero;fill:#0ba87d;fill-opacity:1;" d="M 608.460938 253.128906 C 605.003906 246.351562 588.136719 231.007812 559.65625 244.96875 C 531.175781 258.933594 545 289.765625 545 289.765625 C 555.644531 311.46875 561.589844 335.941406 561.589844 361.65625 C 561.589844 452.351562 488.039062 525.902344 397.347656 525.902344 C 306.652344 525.902344 233.101562 452.351562 233.101562 361.65625 C 233.101562 276.769531 297.527344 206.949219 380.203125 198.242188 L 380.203125 240.824219 C 380.203125 240.824219 380.066406 243.3125 382.691406 244.96875 C 385.316406 246.628906 387.945312 244.96875 387.945312 244.96875 L 524.261719 164.644531 C 524.261719 164.644531 527.304688 162.988281 527.304688 159.945312 C 527.304688 157.316406 524.261719 155.519531 524.261719 155.519531 L 388.5 75.609375 C 388.5 75.609375 385.457031 73.398438 382.691406 74.503906 C 379.925781 75.609375 380.339844 79.34375 380.339844 79.34375 L 380.339844 124.964844 C 257.296875 133.816406 160.242188 236.398438 160.242188 361.65625 C 160.242188 492.71875 266.558594 599.039062 397.621094 599.039062 C 528.6875 599.039062 635.003906 492.71875 635.003906 361.65625 C 634.726562 322.53125 625.1875 285.617188 608.460938 253.128906 "/></g></svg>