<svg xmlns="http://www.w3.org/2000/svg" xmlns:xlink="http://www.w3.org/1999/xlink" width="1060" zoomAndPan="magnify" viewBox="0 0 794.88 723.75" height="965" preserveAspectRatio="xMidYMid meet" version="1.2"><g id="05614425ab"><path style=" stroke:none;fill-rule:evenodd;fill:#0ba87d;fill-opacity:1;" d="M 36.265625 266.691406 L 721.070312 21.453125 C 748.460938 11.664062 774.875 38.105469 764.921875 65.46875 L 537.097656 690.558594 C 530.207031 709.324219 504.554688 711.601562 494.410156 694.570312 L 337.609375 428.644531 C 331.101562 417.550781 333.378906 403.179688 343.167969 394.582031 L 579.589844 187.992188 C 582.085938 185.902344 579.210938 181.863281 576.335938 183.789062 L 312.902344 350.730469 C 303.710938 356.671875 292.429688 358.597656 281.691406 356.101562 L 36.453125 301.347656 C 19.992188 295.789062 19.804688 272.4375 36.265625 266.691406 Z M 36.265625 266.691406 "/><path style=" stroke:none;fill-rule:evenodd;fill:#0ba87d;fill-opacity:1;" d="M 296.441406 437.457031 L 296.441406 627.371094 C 296.441406 639.628906 307.15625 644.023438 315.777344 635.804688 L 380.429688 574.109375 C 382.355469 570.476562 382.355469 565.867188 380.429688 562.230469 L 315.777344 431.707031 C 310.597656 420.804688 296.441406 425.199219 296.441406 437.457031 Z M 296.441406 437.457031 "/></g></svg>