<svg xmlns="http://www.w3.org/2000/svg" xmlns:xlink="http://www.w3.org/1999/xlink" width="1060" zoomAndPan="magnify" viewBox="0 0 794.88 723.75" height="965" preserveAspectRatio="xMidYMid meet" version="1.2"><defs><clipPath id="486bacfaea"><path d="M 36.253906 19.976562 L 759 19.976562 L 759 700 L 36.253906 700 Z M 36.253906 19.976562 "/></clipPath></defs><g id="f3962cf4ac"><g clip-rule="nonzero" clip-path="url(#486bacfaea)"><path style=" stroke:none;fill-rule:nonzero;fill:#0ba87d;fill-opacity:1;" d="M 654.304688 19.976562 L 140.570312 19.976562 C 83.019531 19.976562 36.363281 66.632812 36.363281 124.183594 L 36.363281 447.808594 C 36.363281 505.363281 83.019531 552.015625 140.570312 552.015625 L 243.847656 552.015625 C 255.007812 552.015625 265.582031 557.027344 272.648438 565.664062 L 372.667969 687.886719 C 385.472656 703.535156 409.402344 703.535156 422.210938 687.886719 L 522.230469 565.664062 C 529.296875 557.023438 539.871094 552.015625 551.03125 552.015625 L 654.308594 552.015625 C 711.859375 552.015625 758.515625 505.359375 758.515625 447.808594 L 758.515625 124.183594 C 758.515625 66.632812 711.859375 19.976562 654.304688 19.976562 Z M 654.304688 19.976562 "/></g><path style=" stroke:none;fill-rule:nonzero;fill:#ffffff;fill-opacity:1;" d="M 544.589844 175.652344 C 508.238281 139.300781 449.085938 139.300781 412.738281 175.652344 L 397.4375 190.953125 L 382.140625 175.652344 C 345.792969 139.304688 286.640625 139.300781 250.289062 175.652344 C 213.9375 212.003906 213.9375 271.152344 250.289062 307.503906 L 397.4375 454.65625 L 544.589844 307.503906 C 580.941406 271.152344 580.941406 212.003906 544.589844 175.652344 Z M 544.589844 175.652344 "/></g></svg>