<svg xmlns="http://www.w3.org/2000/svg" xmlns:xlink="http://www.w3.org/1999/xlink" width="1060" zoomAndPan="magnify" viewBox="0 0 794.88 723.75" height="965" preserveAspectRatio="xMidYMid meet" version="1.2"><defs><clipPath id="87df535831"><path d="M 53.042969 17.351562 L 742.054688 17.351562 L 742.054688 706.363281 L 53.042969 706.363281 Z M 53.042969 17.351562 "/></clipPath></defs><g id="8328442a89"><g clip-rule="nonzero" clip-path="url(#87df535831)"><path style=" stroke:none;fill-rule:evenodd;fill:#000000;fill-opacity:1;" d="M 265.660156 17.351562 L 529.414062 17.351562 C 532.894531 17.351562 536.371094 17.4375 539.847656 17.609375 C 543.324219 17.777344 546.792969 18.035156 550.257812 18.375 C 553.71875 18.714844 557.171875 19.140625 560.613281 19.652344 C 564.054688 20.164062 567.484375 20.757812 570.894531 21.4375 C 574.308594 22.117188 577.703125 22.878906 581.078125 23.722656 C 584.453125 24.570312 587.804688 25.496094 591.136719 26.507812 C 594.464844 27.515625 597.769531 28.609375 601.046875 29.78125 C 604.320312 30.953125 607.566406 32.203125 610.78125 33.535156 C 613.996094 34.867188 617.175781 36.277344 620.324219 37.765625 C 623.46875 39.253906 626.574219 40.816406 629.644531 42.457031 C 632.714844 44.097656 635.738281 45.8125 638.726562 47.601562 C 641.710938 49.390625 644.648438 51.25 647.542969 53.183594 C 650.433594 55.117188 653.277344 57.121094 656.074219 59.195312 C 658.867188 61.265625 661.613281 63.40625 664.300781 65.613281 C 666.992188 67.820312 669.625 70.09375 672.203125 72.429688 C 674.78125 74.769531 677.300781 77.167969 679.761719 79.628906 C 682.222656 82.085938 684.621094 84.605469 686.957031 87.183594 C 689.292969 89.761719 691.566406 92.398438 693.773438 95.085938 C 695.980469 97.777344 698.121094 100.519531 700.195312 103.316406 C 702.269531 106.109375 704.269531 108.953125 706.203125 111.847656 C 708.136719 114.742188 710 117.679688 711.789062 120.664062 C 713.574219 123.648438 715.289062 126.675781 716.929688 129.746094 C 718.570312 132.8125 720.136719 135.921875 721.625 139.066406 C 723.109375 142.210938 724.519531 145.390625 725.851562 148.605469 C 727.183594 151.820312 728.4375 155.066406 729.609375 158.34375 C 730.78125 161.621094 731.871094 164.921875 732.882812 168.253906 C 733.890625 171.582031 734.820312 174.933594 735.664062 178.308594 C 736.511719 181.6875 737.273438 185.082031 737.953125 188.492188 C 738.628906 191.90625 739.226562 195.332031 739.734375 198.773438 C 740.246094 202.21875 740.671875 205.671875 741.011719 209.132812 C 741.355469 212.597656 741.609375 216.066406 741.78125 219.539062 C 741.953125 223.015625 742.039062 226.492188 742.039062 229.972656 L 742.039062 493.730469 C 742.039062 497.210938 741.953125 500.6875 741.78125 504.164062 C 741.609375 507.636719 741.355469 511.105469 741.011719 514.570312 C 740.671875 518.03125 740.246094 521.484375 739.734375 524.925781 C 739.226562 528.371094 738.628906 531.796875 737.953125 535.210938 C 737.273438 538.621094 736.511719 542.015625 735.664062 545.390625 C 734.820312 548.769531 733.890625 552.121094 732.882812 555.449219 C 731.871094 558.78125 730.78125 562.082031 729.609375 565.359375 C 728.4375 568.636719 727.183594 571.882812 725.851562 575.097656 C 724.519531 578.3125 723.109375 581.492188 721.625 584.636719 C 720.136719 587.78125 718.570312 590.890625 716.929688 593.957031 C 715.289062 597.027344 713.574219 600.054688 711.789062 603.039062 C 710 606.023438 708.136719 608.960938 706.203125 611.855469 C 704.269531 614.75 702.269531 617.59375 700.195312 620.386719 C 698.121094 623.183594 695.980469 625.925781 693.773438 628.617188 C 691.566406 631.304688 689.292969 633.9375 686.957031 636.519531 C 684.621094 639.097656 682.222656 641.617188 679.761719 644.074219 C 677.300781 646.535156 674.78125 648.933594 672.203125 651.273438 C 669.625 653.609375 666.992188 655.882812 664.300781 658.089844 C 661.613281 660.296875 658.867188 662.4375 656.074219 664.507812 C 653.277344 666.582031 650.433594 668.585938 647.542969 670.519531 C 644.648438 672.453125 641.710938 674.3125 638.726562 676.101562 C 635.738281 677.890625 632.714844 679.605469 629.644531 681.246094 C 626.574219 682.886719 623.46875 684.449219 620.324219 685.9375 C 617.175781 687.425781 613.996094 688.835938 610.78125 690.167969 C 607.566406 691.5 604.320312 692.75 601.046875 693.921875 C 597.769531 695.09375 594.464844 696.1875 591.136719 697.195312 C 587.804688 698.207031 584.453125 699.132812 581.078125 699.980469 C 577.703125 700.824219 574.308594 701.585938 570.894531 702.265625 C 567.484375 702.945312 564.054688 703.539062 560.613281 704.050781 C 557.171875 704.5625 553.71875 704.988281 550.257812 705.328125 C 546.792969 705.667969 543.324219 705.925781 539.847656 706.09375 C 536.371094 706.265625 532.894531 706.351562 529.414062 706.351562 L 265.660156 706.351562 C 262.179688 706.351562 258.703125 706.265625 255.226562 706.09375 C 251.75 705.925781 248.28125 705.667969 244.820312 705.328125 C 241.355469 704.988281 237.902344 704.5625 234.460938 704.050781 C 231.019531 703.539062 227.589844 702.945312 224.179688 702.265625 C 220.765625 701.585938 217.371094 700.824219 213.996094 699.980469 C 210.621094 699.132812 207.269531 698.207031 203.9375 697.195312 C 200.609375 696.1875 197.304688 695.09375 194.027344 693.921875 C 190.753906 692.75 187.507812 691.5 184.292969 690.167969 C 181.078125 688.835938 177.898438 687.425781 174.75 685.9375 C 171.605469 684.449219 168.5 682.886719 165.429688 681.246094 C 162.359375 679.605469 159.335938 677.890625 156.351562 676.101562 C 153.363281 674.3125 150.425781 672.453125 147.53125 670.519531 C 144.640625 668.585938 141.796875 666.582031 139 664.507812 C 136.207031 662.4375 133.464844 660.296875 130.773438 658.089844 C 128.082031 655.882812 125.449219 653.609375 122.871094 651.273438 C 120.292969 648.933594 117.773438 646.535156 115.3125 644.074219 C 112.851562 641.617188 110.453125 639.097656 108.117188 636.519531 C 105.78125 633.9375 103.507812 631.304688 101.300781 628.617188 C 99.09375 625.925781 96.953125 623.183594 94.878906 620.386719 C 92.808594 617.59375 90.804688 614.75 88.871094 611.855469 C 86.9375 608.960938 85.078125 606.023438 83.289062 603.039062 C 81.5 600.054688 79.785156 597.027344 78.144531 593.957031 C 76.503906 590.890625 74.9375 587.78125 73.453125 584.636719 C 71.964844 581.492188 70.554688 578.3125 69.222656 575.097656 C 67.890625 571.882812 66.640625 568.636719 65.464844 565.359375 C 64.292969 562.082031 63.203125 558.78125 62.191406 555.449219 C 61.183594 552.121094 60.253906 548.769531 59.410156 545.390625 C 58.5625 542.015625 57.800781 538.621094 57.121094 535.210938 C 56.445312 531.796875 55.847656 528.371094 55.339844 524.925781 C 54.828125 521.484375 54.402344 518.03125 54.0625 514.570312 C 53.71875 511.105469 53.464844 507.636719 53.292969 504.164062 C 53.121094 500.6875 53.039062 497.210938 53.039062 493.730469 L 53.039062 229.972656 C 53.039062 226.492188 53.121094 223.015625 53.292969 219.539062 C 53.464844 216.066406 53.71875 212.597656 54.0625 209.132812 C 54.402344 205.671875 54.828125 202.21875 55.339844 198.773438 C 55.847656 195.332031 56.445312 191.90625 57.121094 188.492188 C 57.800781 185.082031 58.5625 181.6875 59.410156 178.308594 C 60.253906 174.933594 61.183594 171.582031 62.191406 168.253906 C 63.203125 164.921875 64.292969 161.621094 65.464844 158.34375 C 66.640625 155.066406 67.890625 151.820312 69.222656 148.605469 C 70.554688 145.390625 71.964844 142.210938 73.453125 139.066406 C 74.9375 135.921875 76.503906 132.8125 78.144531 129.746094 C 79.785156 126.675781 81.5 123.648438 83.289062 120.664062 C 85.078125 117.679688 86.9375 114.742188 88.871094 111.847656 C 90.804688 108.953125 92.808594 106.109375 94.878906 103.316406 C 96.953125 100.519531 99.09375 97.777344 101.300781 95.085938 C 103.507812 92.398438 105.78125 89.761719 108.117188 87.183594 C 110.453125 84.605469 112.851562 82.085938 115.3125 79.628906 C 117.773438 77.167969 120.292969 74.769531 122.871094 72.429688 C 125.449219 70.09375 128.082031 67.820312 130.773438 65.613281 C 133.464844 63.40625 136.207031 61.265625 139 59.195312 C 141.796875 57.121094 144.640625 55.117188 147.53125 53.183594 C 150.425781 51.25 153.363281 49.390625 156.351562 47.601562 C 159.335938 45.8125 162.359375 44.097656 165.429688 42.457031 C 168.5 40.816406 171.605469 39.253906 174.75 37.765625 C 177.898438 36.277344 181.078125 34.867188 184.292969 33.535156 C 187.507812 32.203125 190.753906 30.953125 194.027344 29.78125 C 197.304688 28.609375 200.609375 27.515625 203.9375 26.507812 C 207.269531 25.496094 210.621094 24.570312 213.996094 23.722656 C 217.371094 22.878906 220.765625 22.117188 224.179688 21.4375 C 227.589844 20.757812 231.019531 20.164062 234.460938 19.652344 C 237.902344 19.140625 241.355469 18.714844 244.820312 18.375 C 248.28125 18.035156 251.75 17.777344 255.226562 17.609375 C 258.703125 17.4375 262.179688 17.351562 265.660156 17.351562 Z M 265.660156 17.351562 "/></g><path style=" stroke:none;fill-rule:nonzero;fill:#fefefe;fill-opacity:1;" d="M 386.257812 389.144531 L 368.914062 364.308594 L 230.828125 166.804688 L 290.285156 166.804688 L 401.710938 326.214844 L 419.066406 351.023438 L 563.910156 558.222656 L 504.46875 558.222656 L 386.265625 389.148438 Z M 439.273438 327.515625 L 602.597656 137.667969 L 563.871094 137.667969 L 422.070312 302.507812 L 308.816406 137.667969 L 178.183594 137.667969 L 349.449219 386.933594 L 178.183594 586.019531 L 216.886719 586.019531 L 366.628906 411.945312 L 486.253906 586.019531 L 616.886719 586.019531 L 439.246094 327.519531 L 439.273438 327.519531 Z M 439.273438 327.515625 "/></g></svg>