<svg xmlns="http://www.w3.org/2000/svg" xmlns:xlink="http://www.w3.org/1999/xlink" width="1060" zoomAndPan="magnify" viewBox="0 0 794.88 723.75" height="965" preserveAspectRatio="xMidYMid meet" version="1.2"><defs><clipPath id="992d1f4237"><path d="M 46.945312 11.253906 L 747.953125 11.253906 L 747.953125 712.261719 L 46.945312 712.261719 Z M 46.945312 11.253906 "/></clipPath></defs><g id="163b1a3521"><g clip-rule="nonzero" clip-path="url(#992d1f4237)"><path style=" stroke:none;fill-rule:nonzero;fill:#ffffff;fill-opacity:1;" d="M 397.46875 712.304688 C 203.878906 712.304688 46.945312 555.367188 46.945312 361.777344 C 46.945312 168.183594 203.878906 11.246094 397.46875 11.246094 C 591.058594 11.246094 747.996094 168.183594 747.996094 361.777344 C 747.996094 555.367188 591.058594 712.304688 397.46875 712.304688 "/></g><path style=" stroke:none;fill-rule:nonzero;fill:#0ba87d;fill-opacity:1;" d="M 606.785156 499.027344 L 468.933594 361.417969 L 606.464844 223.648438 L 534.71875 152.164062 L 397.375 289.984375 L 259.636719 152.484375 L 188.152344 224.238281 L 326.003906 361.605469 L 188.472656 499.617188 L 259.921875 570.796875 L 397.5625 432.910156 L 535.605469 570.476562 L 606.785156 499.027344 "/></g></svg>